<?xml version="1.0" encoding="utf-8" standalone="no"?>
<!DOCTYPE svg PUBLIC "-//W3C//DTD SVG 1.1//EN"
  "http://www.w3.org/Graphics/SVG/1.1/DTD/svg11.dtd">
<svg xmlns:xlink="http://www.w3.org/1999/xlink" width="720pt" height="288pt" viewBox="0 0 720 288" xmlns="http://www.w3.org/2000/svg" version="1.1">
 <metadata>
  <rdf:RDF xmlns:dc="http://purl.org/dc/elements/1.1/" xmlns:cc="http://creativecommons.org/ns#" xmlns:rdf="http://www.w3.org/1999/02/22-rdf-syntax-ns#">
   <cc:Work>
    <dc:type rdf:resource="http://purl.org/dc/dcmitype/StillImage"/>
    <dc:date>2024-11-14T11:09:35.931693</dc:date>
    <dc:format>image/svg+xml</dc:format>
    <dc:creator>
     <cc:Agent>
      <dc:title>Matplotlib v3.7.1, https://matplotlib.org/</dc:title>
     </cc:Agent>
    </dc:creator>
   </cc:Work>
  </rdf:RDF>
 </metadata>
 <defs>
  <style type="text/css">*{stroke-linejoin: round; stroke-linecap: butt}</style>
 </defs>
 <g id="figure_1">
  <g id="patch_1">
   <path d="M 0 288 
L 720 288 
L 720 0 
L 0 0 
z
" style="fill: #ffffff"/>
  </g>
  <g id="axes_1">
   <g id="patch_2">
    <path d="M 90 256.32 
L 648 256.32 
L 648 34.56 
L 90 34.56 
z
" style="fill: #ffffff"/>
   </g>
   <g id="matplotlib.axis_1">
    <g id="xtick_1">
     <g id="line2d_1">
      <defs>
       <path id="m261f75c2f9" d="M 0 0 
L 0 3.5 
" style="stroke: #000000; stroke-width: 0.8"/>
      </defs>
      <g>
       <use xlink:href="#m261f75c2f9" x="115.363636" y="256.32" style="stroke: #000000; stroke-width: 0.8"/>
      </g>
     </g>
     <g id="text_1">
      <!-- 0 -->
      <g transform="translate(112.182386 270.918437) scale(0.1 -0.1)">
       <defs>
        <path id="DejaVuSans-30" d="M 2034 4250 
Q 1547 4250 1301 3770 
Q 1056 3291 1056 2328 
Q 1056 1369 1301 889 
Q 1547 409 2034 409 
Q 2525 409 2770 889 
Q 3016 1369 3016 2328 
Q 3016 3291 2770 3770 
Q 2525 4250 2034 4250 
z
M 2034 4750 
Q 2819 4750 3233 4129 
Q 3647 3509 3647 2328 
Q 3647 1150 3233 529 
Q 2819 -91 2034 -91 
Q 1250 -91 836 529 
Q 422 1150 422 2328 
Q 422 3509 836 4129 
Q 1250 4750 2034 4750 
z
" transform="scale(0.015625)"/>
       </defs>
       <use xlink:href="#DejaVuSans-30"/>
      </g>
     </g>
    </g>
    <g id="xtick_2">
     <g id="line2d_2">
      <g>
       <use xlink:href="#m261f75c2f9" x="191.645249" y="256.32" style="stroke: #000000; stroke-width: 0.8"/>
      </g>
     </g>
     <g id="text_2">
      <!-- 100 -->
      <g transform="translate(182.101499 270.918437) scale(0.1 -0.1)">
       <defs>
        <path id="DejaVuSans-31" d="M 794 531 
L 1825 531 
L 1825 4091 
L 703 3866 
L 703 4441 
L 1819 4666 
L 2450 4666 
L 2450 531 
L 3481 531 
L 3481 0 
L 794 0 
L 794 531 
z
" transform="scale(0.015625)"/>
       </defs>
       <use xlink:href="#DejaVuSans-31"/>
       <use xlink:href="#DejaVuSans-30" x="63.623047"/>
       <use xlink:href="#DejaVuSans-30" x="127.246094"/>
      </g>
     </g>
    </g>
    <g id="xtick_3">
     <g id="line2d_3">
      <g>
       <use xlink:href="#m261f75c2f9" x="267.926863" y="256.32" style="stroke: #000000; stroke-width: 0.8"/>
      </g>
     </g>
     <g id="text_3">
      <!-- 200 -->
      <g transform="translate(258.383113 270.918437) scale(0.1 -0.1)">
       <defs>
        <path id="DejaVuSans-32" d="M 1228 531 
L 3431 531 
L 3431 0 
L 469 0 
L 469 531 
Q 828 903 1448 1529 
Q 2069 2156 2228 2338 
Q 2531 2678 2651 2914 
Q 2772 3150 2772 3378 
Q 2772 3750 2511 3984 
Q 2250 4219 1831 4219 
Q 1534 4219 1204 4116 
Q 875 4013 500 3803 
L 500 4441 
Q 881 4594 1212 4672 
Q 1544 4750 1819 4750 
Q 2544 4750 2975 4387 
Q 3406 4025 3406 3419 
Q 3406 3131 3298 2873 
Q 3191 2616 2906 2266 
Q 2828 2175 2409 1742 
Q 1991 1309 1228 531 
z
" transform="scale(0.015625)"/>
       </defs>
       <use xlink:href="#DejaVuSans-32"/>
       <use xlink:href="#DejaVuSans-30" x="63.623047"/>
       <use xlink:href="#DejaVuSans-30" x="127.246094"/>
      </g>
     </g>
    </g>
    <g id="xtick_4">
     <g id="line2d_4">
      <g>
       <use xlink:href="#m261f75c2f9" x="344.208476" y="256.32" style="stroke: #000000; stroke-width: 0.8"/>
      </g>
     </g>
     <g id="text_4">
      <!-- 300 -->
      <g transform="translate(334.664726 270.918437) scale(0.1 -0.1)">
       <defs>
        <path id="DejaVuSans-33" d="M 2597 2516 
Q 3050 2419 3304 2112 
Q 3559 1806 3559 1356 
Q 3559 666 3084 287 
Q 2609 -91 1734 -91 
Q 1441 -91 1130 -33 
Q 819 25 488 141 
L 488 750 
Q 750 597 1062 519 
Q 1375 441 1716 441 
Q 2309 441 2620 675 
Q 2931 909 2931 1356 
Q 2931 1769 2642 2001 
Q 2353 2234 1838 2234 
L 1294 2234 
L 1294 2753 
L 1863 2753 
Q 2328 2753 2575 2939 
Q 2822 3125 2822 3475 
Q 2822 3834 2567 4026 
Q 2313 4219 1838 4219 
Q 1578 4219 1281 4162 
Q 984 4106 628 3988 
L 628 4550 
Q 988 4650 1302 4700 
Q 1616 4750 1894 4750 
Q 2613 4750 3031 4423 
Q 3450 4097 3450 3541 
Q 3450 3153 3228 2886 
Q 3006 2619 2597 2516 
z
" transform="scale(0.015625)"/>
       </defs>
       <use xlink:href="#DejaVuSans-33"/>
       <use xlink:href="#DejaVuSans-30" x="63.623047"/>
       <use xlink:href="#DejaVuSans-30" x="127.246094"/>
      </g>
     </g>
    </g>
    <g id="xtick_5">
     <g id="line2d_5">
      <g>
       <use xlink:href="#m261f75c2f9" x="420.490089" y="256.32" style="stroke: #000000; stroke-width: 0.8"/>
      </g>
     </g>
     <g id="text_5">
      <!-- 400 -->
      <g transform="translate(410.946339 270.918437) scale(0.1 -0.1)">
       <defs>
        <path id="DejaVuSans-34" d="M 2419 4116 
L 825 1625 
L 2419 1625 
L 2419 4116 
z
M 2253 4666 
L 3047 4666 
L 3047 1625 
L 3713 1625 
L 3713 1100 
L 3047 1100 
L 3047 0 
L 2419 0 
L 2419 1100 
L 313 1100 
L 313 1709 
L 2253 4666 
z
" transform="scale(0.015625)"/>
       </defs>
       <use xlink:href="#DejaVuSans-34"/>
       <use xlink:href="#DejaVuSans-30" x="63.623047"/>
       <use xlink:href="#DejaVuSans-30" x="127.246094"/>
      </g>
     </g>
    </g>
    <g id="xtick_6">
     <g id="line2d_6">
      <g>
       <use xlink:href="#m261f75c2f9" x="496.771702" y="256.32" style="stroke: #000000; stroke-width: 0.8"/>
      </g>
     </g>
     <g id="text_6">
      <!-- 500 -->
      <g transform="translate(487.227952 270.918437) scale(0.1 -0.1)">
       <defs>
        <path id="DejaVuSans-35" d="M 691 4666 
L 3169 4666 
L 3169 4134 
L 1269 4134 
L 1269 2991 
Q 1406 3038 1543 3061 
Q 1681 3084 1819 3084 
Q 2600 3084 3056 2656 
Q 3513 2228 3513 1497 
Q 3513 744 3044 326 
Q 2575 -91 1722 -91 
Q 1428 -91 1123 -41 
Q 819 9 494 109 
L 494 744 
Q 775 591 1075 516 
Q 1375 441 1709 441 
Q 2250 441 2565 725 
Q 2881 1009 2881 1497 
Q 2881 1984 2565 2268 
Q 2250 2553 1709 2553 
Q 1456 2553 1204 2497 
Q 953 2441 691 2322 
L 691 4666 
z
" transform="scale(0.015625)"/>
       </defs>
       <use xlink:href="#DejaVuSans-35"/>
       <use xlink:href="#DejaVuSans-30" x="63.623047"/>
       <use xlink:href="#DejaVuSans-30" x="127.246094"/>
      </g>
     </g>
    </g>
    <g id="xtick_7">
     <g id="line2d_7">
      <g>
       <use xlink:href="#m261f75c2f9" x="573.053315" y="256.32" style="stroke: #000000; stroke-width: 0.8"/>
      </g>
     </g>
     <g id="text_7">
      <!-- 600 -->
      <g transform="translate(563.509565 270.918437) scale(0.1 -0.1)">
       <defs>
        <path id="DejaVuSans-36" d="M 2113 2584 
Q 1688 2584 1439 2293 
Q 1191 2003 1191 1497 
Q 1191 994 1439 701 
Q 1688 409 2113 409 
Q 2538 409 2786 701 
Q 3034 994 3034 1497 
Q 3034 2003 2786 2293 
Q 2538 2584 2113 2584 
z
M 3366 4563 
L 3366 3988 
Q 3128 4100 2886 4159 
Q 2644 4219 2406 4219 
Q 1781 4219 1451 3797 
Q 1122 3375 1075 2522 
Q 1259 2794 1537 2939 
Q 1816 3084 2150 3084 
Q 2853 3084 3261 2657 
Q 3669 2231 3669 1497 
Q 3669 778 3244 343 
Q 2819 -91 2113 -91 
Q 1303 -91 875 529 
Q 447 1150 447 2328 
Q 447 3434 972 4092 
Q 1497 4750 2381 4750 
Q 2619 4750 2861 4703 
Q 3103 4656 3366 4563 
z
" transform="scale(0.015625)"/>
       </defs>
       <use xlink:href="#DejaVuSans-36"/>
       <use xlink:href="#DejaVuSans-30" x="63.623047"/>
       <use xlink:href="#DejaVuSans-30" x="127.246094"/>
      </g>
     </g>
    </g>
    <g id="text_8">
     <!-- Sample -->
     <g transform="translate(350.251562 284.596563) scale(0.1 -0.1)">
      <defs>
       <path id="DejaVuSans-53" d="M 3425 4513 
L 3425 3897 
Q 3066 4069 2747 4153 
Q 2428 4238 2131 4238 
Q 1616 4238 1336 4038 
Q 1056 3838 1056 3469 
Q 1056 3159 1242 3001 
Q 1428 2844 1947 2747 
L 2328 2669 
Q 3034 2534 3370 2195 
Q 3706 1856 3706 1288 
Q 3706 609 3251 259 
Q 2797 -91 1919 -91 
Q 1588 -91 1214 -16 
Q 841 59 441 206 
L 441 856 
Q 825 641 1194 531 
Q 1563 422 1919 422 
Q 2459 422 2753 634 
Q 3047 847 3047 1241 
Q 3047 1584 2836 1778 
Q 2625 1972 2144 2069 
L 1759 2144 
Q 1053 2284 737 2584 
Q 422 2884 422 3419 
Q 422 4038 858 4394 
Q 1294 4750 2059 4750 
Q 2388 4750 2728 4690 
Q 3069 4631 3425 4513 
z
" transform="scale(0.015625)"/>
       <path id="DejaVuSans-61" d="M 2194 1759 
Q 1497 1759 1228 1600 
Q 959 1441 959 1056 
Q 959 750 1161 570 
Q 1363 391 1709 391 
Q 2188 391 2477 730 
Q 2766 1069 2766 1631 
L 2766 1759 
L 2194 1759 
z
M 3341 1997 
L 3341 0 
L 2766 0 
L 2766 531 
Q 2569 213 2275 61 
Q 1981 -91 1556 -91 
Q 1019 -91 701 211 
Q 384 513 384 1019 
Q 384 1609 779 1909 
Q 1175 2209 1959 2209 
L 2766 2209 
L 2766 2266 
Q 2766 2663 2505 2880 
Q 2244 3097 1772 3097 
Q 1472 3097 1187 3025 
Q 903 2953 641 2809 
L 641 3341 
Q 956 3463 1253 3523 
Q 1550 3584 1831 3584 
Q 2591 3584 2966 3190 
Q 3341 2797 3341 1997 
z
" transform="scale(0.015625)"/>
       <path id="DejaVuSans-6d" d="M 3328 2828 
Q 3544 3216 3844 3400 
Q 4144 3584 4550 3584 
Q 5097 3584 5394 3201 
Q 5691 2819 5691 2113 
L 5691 0 
L 5113 0 
L 5113 2094 
Q 5113 2597 4934 2840 
Q 4756 3084 4391 3084 
Q 3944 3084 3684 2787 
Q 3425 2491 3425 1978 
L 3425 0 
L 2847 0 
L 2847 2094 
Q 2847 2600 2669 2842 
Q 2491 3084 2119 3084 
Q 1678 3084 1418 2786 
Q 1159 2488 1159 1978 
L 1159 0 
L 581 0 
L 581 3500 
L 1159 3500 
L 1159 2956 
Q 1356 3278 1631 3431 
Q 1906 3584 2284 3584 
Q 2666 3584 2933 3390 
Q 3200 3197 3328 2828 
z
" transform="scale(0.015625)"/>
       <path id="DejaVuSans-70" d="M 1159 525 
L 1159 -1331 
L 581 -1331 
L 581 3500 
L 1159 3500 
L 1159 2969 
Q 1341 3281 1617 3432 
Q 1894 3584 2278 3584 
Q 2916 3584 3314 3078 
Q 3713 2572 3713 1747 
Q 3713 922 3314 415 
Q 2916 -91 2278 -91 
Q 1894 -91 1617 61 
Q 1341 213 1159 525 
z
M 3116 1747 
Q 3116 2381 2855 2742 
Q 2594 3103 2138 3103 
Q 1681 3103 1420 2742 
Q 1159 2381 1159 1747 
Q 1159 1113 1420 752 
Q 1681 391 2138 391 
Q 2594 391 2855 752 
Q 3116 1113 3116 1747 
z
" transform="scale(0.015625)"/>
       <path id="DejaVuSans-6c" d="M 603 4863 
L 1178 4863 
L 1178 0 
L 603 0 
L 603 4863 
z
" transform="scale(0.015625)"/>
       <path id="DejaVuSans-65" d="M 3597 1894 
L 3597 1613 
L 953 1613 
Q 991 1019 1311 708 
Q 1631 397 2203 397 
Q 2534 397 2845 478 
Q 3156 559 3463 722 
L 3463 178 
Q 3153 47 2828 -22 
Q 2503 -91 2169 -91 
Q 1331 -91 842 396 
Q 353 884 353 1716 
Q 353 2575 817 3079 
Q 1281 3584 2069 3584 
Q 2775 3584 3186 3129 
Q 3597 2675 3597 1894 
z
M 3022 2063 
Q 3016 2534 2758 2815 
Q 2500 3097 2075 3097 
Q 1594 3097 1305 2825 
Q 1016 2553 972 2059 
L 3022 2063 
z
" transform="scale(0.015625)"/>
      </defs>
      <use xlink:href="#DejaVuSans-53"/>
      <use xlink:href="#DejaVuSans-61" x="63.476562"/>
      <use xlink:href="#DejaVuSans-6d" x="124.755859"/>
      <use xlink:href="#DejaVuSans-70" x="222.167969"/>
      <use xlink:href="#DejaVuSans-6c" x="285.644531"/>
      <use xlink:href="#DejaVuSans-65" x="313.427734"/>
     </g>
    </g>
   </g>
   <g id="matplotlib.axis_2">
    <g id="ytick_1">
     <g id="line2d_8">
      <defs>
       <path id="ma6dc5bcf30" d="M 0 0 
L -3.5 0 
" style="stroke: #000000; stroke-width: 0.8"/>
      </defs>
      <g>
       <use xlink:href="#ma6dc5bcf30" x="90" y="250.567516" style="stroke: #000000; stroke-width: 0.8"/>
      </g>
     </g>
     <g id="text_9">
      <!-- −0.10 -->
      <g transform="translate(52.354687 254.366735) scale(0.1 -0.1)">
       <defs>
        <path id="DejaVuSans-2212" d="M 678 2272 
L 4684 2272 
L 4684 1741 
L 678 1741 
L 678 2272 
z
" transform="scale(0.015625)"/>
        <path id="DejaVuSans-2e" d="M 684 794 
L 1344 794 
L 1344 0 
L 684 0 
L 684 794 
z
" transform="scale(0.015625)"/>
       </defs>
       <use xlink:href="#DejaVuSans-2212"/>
       <use xlink:href="#DejaVuSans-30" x="83.789062"/>
       <use xlink:href="#DejaVuSans-2e" x="147.412109"/>
       <use xlink:href="#DejaVuSans-31" x="179.199219"/>
       <use xlink:href="#DejaVuSans-30" x="242.822266"/>
      </g>
     </g>
    </g>
    <g id="ytick_2">
     <g id="line2d_9">
      <g>
       <use xlink:href="#ma6dc5bcf30" x="90" y="203.77024" style="stroke: #000000; stroke-width: 0.8"/>
      </g>
     </g>
     <g id="text_10">
      <!-- −0.05 -->
      <g transform="translate(52.354687 207.569458) scale(0.1 -0.1)">
       <use xlink:href="#DejaVuSans-2212"/>
       <use xlink:href="#DejaVuSans-30" x="83.789062"/>
       <use xlink:href="#DejaVuSans-2e" x="147.412109"/>
       <use xlink:href="#DejaVuSans-30" x="179.199219"/>
       <use xlink:href="#DejaVuSans-35" x="242.822266"/>
      </g>
     </g>
    </g>
    <g id="ytick_3">
     <g id="line2d_10">
      <g>
       <use xlink:href="#ma6dc5bcf30" x="90" y="156.972963" style="stroke: #000000; stroke-width: 0.8"/>
      </g>
     </g>
     <g id="text_11">
      <!-- 0.00 -->
      <g transform="translate(60.734375 160.772182) scale(0.1 -0.1)">
       <use xlink:href="#DejaVuSans-30"/>
       <use xlink:href="#DejaVuSans-2e" x="63.623047"/>
       <use xlink:href="#DejaVuSans-30" x="95.410156"/>
       <use xlink:href="#DejaVuSans-30" x="159.033203"/>
      </g>
     </g>
    </g>
    <g id="ytick_4">
     <g id="line2d_11">
      <g>
       <use xlink:href="#ma6dc5bcf30" x="90" y="110.175686" style="stroke: #000000; stroke-width: 0.8"/>
      </g>
     </g>
     <g id="text_12">
      <!-- 0.05 -->
      <g transform="translate(60.734375 113.974905) scale(0.1 -0.1)">
       <use xlink:href="#DejaVuSans-30"/>
       <use xlink:href="#DejaVuSans-2e" x="63.623047"/>
       <use xlink:href="#DejaVuSans-30" x="95.410156"/>
       <use xlink:href="#DejaVuSans-35" x="159.033203"/>
      </g>
     </g>
    </g>
    <g id="ytick_5">
     <g id="line2d_12">
      <g>
       <use xlink:href="#ma6dc5bcf30" x="90" y="63.37841" style="stroke: #000000; stroke-width: 0.8"/>
      </g>
     </g>
     <g id="text_13">
      <!-- 0.10 -->
      <g transform="translate(60.734375 67.177629) scale(0.1 -0.1)">
       <use xlink:href="#DejaVuSans-30"/>
       <use xlink:href="#DejaVuSans-2e" x="63.623047"/>
       <use xlink:href="#DejaVuSans-31" x="95.410156"/>
       <use xlink:href="#DejaVuSans-30" x="159.033203"/>
      </g>
     </g>
    </g>
    <g id="text_14">
     <!-- Amplitude -->
     <g transform="translate(46.275 171.062656) rotate(-90) scale(0.1 -0.1)">
      <defs>
       <path id="DejaVuSans-41" d="M 2188 4044 
L 1331 1722 
L 3047 1722 
L 2188 4044 
z
M 1831 4666 
L 2547 4666 
L 4325 0 
L 3669 0 
L 3244 1197 
L 1141 1197 
L 716 0 
L 50 0 
L 1831 4666 
z
" transform="scale(0.015625)"/>
       <path id="DejaVuSans-69" d="M 603 3500 
L 1178 3500 
L 1178 0 
L 603 0 
L 603 3500 
z
M 603 4863 
L 1178 4863 
L 1178 4134 
L 603 4134 
L 603 4863 
z
" transform="scale(0.015625)"/>
       <path id="DejaVuSans-74" d="M 1172 4494 
L 1172 3500 
L 2356 3500 
L 2356 3053 
L 1172 3053 
L 1172 1153 
Q 1172 725 1289 603 
Q 1406 481 1766 481 
L 2356 481 
L 2356 0 
L 1766 0 
Q 1100 0 847 248 
Q 594 497 594 1153 
L 594 3053 
L 172 3053 
L 172 3500 
L 594 3500 
L 594 4494 
L 1172 4494 
z
" transform="scale(0.015625)"/>
       <path id="DejaVuSans-75" d="M 544 1381 
L 544 3500 
L 1119 3500 
L 1119 1403 
Q 1119 906 1312 657 
Q 1506 409 1894 409 
Q 2359 409 2629 706 
Q 2900 1003 2900 1516 
L 2900 3500 
L 3475 3500 
L 3475 0 
L 2900 0 
L 2900 538 
Q 2691 219 2414 64 
Q 2138 -91 1772 -91 
Q 1169 -91 856 284 
Q 544 659 544 1381 
z
M 1991 3584 
L 1991 3584 
z
" transform="scale(0.015625)"/>
       <path id="DejaVuSans-64" d="M 2906 2969 
L 2906 4863 
L 3481 4863 
L 3481 0 
L 2906 0 
L 2906 525 
Q 2725 213 2448 61 
Q 2172 -91 1784 -91 
Q 1150 -91 751 415 
Q 353 922 353 1747 
Q 353 2572 751 3078 
Q 1150 3584 1784 3584 
Q 2172 3584 2448 3432 
Q 2725 3281 2906 2969 
z
M 947 1747 
Q 947 1113 1208 752 
Q 1469 391 1925 391 
Q 2381 391 2643 752 
Q 2906 1113 2906 1747 
Q 2906 2381 2643 2742 
Q 2381 3103 1925 3103 
Q 1469 3103 1208 2742 
Q 947 2381 947 1747 
z
" transform="scale(0.015625)"/>
      </defs>
      <use xlink:href="#DejaVuSans-41"/>
      <use xlink:href="#DejaVuSans-6d" x="68.408203"/>
      <use xlink:href="#DejaVuSans-70" x="165.820312"/>
      <use xlink:href="#DejaVuSans-6c" x="229.296875"/>
      <use xlink:href="#DejaVuSans-69" x="257.080078"/>
      <use xlink:href="#DejaVuSans-74" x="284.863281"/>
      <use xlink:href="#DejaVuSans-75" x="324.072266"/>
      <use xlink:href="#DejaVuSans-64" x="387.451172"/>
      <use xlink:href="#DejaVuSans-65" x="450.927734"/>
     </g>
    </g>
   </g>
   <g id="line2d_13">
    <path d="M 115.363636 172.868351 
L 116.126452 129.307703 
L 116.889269 130.691917 
L 117.652085 196.772696 
L 118.414901 198.642567 
L 119.177717 156.944054 
L 119.940533 90.23421 
L 121.466165 174.102547 
L 122.228982 188.929427 
L 122.991798 200.983296 
L 123.754614 162.473632 
L 124.51743 109.502282 
L 125.280246 117.918832 
L 126.043062 156.757943 
L 126.805878 165.941936 
L 127.568694 178.383484 
L 128.331511 174.674547 
L 129.094327 185.847993 
L 129.857143 155.885316 
L 130.619959 117.331067 
L 131.382775 118.447721 
L 132.145591 165.036984 
L 132.908407 176.825505 
L 133.671224 177.898315 
L 134.43404 167.171149 
L 135.196856 163.093735 
L 135.959672 139.430349 
L 136.722488 123.976667 
L 137.485304 165.70489 
L 138.24812 150.839476 
L 139.010936 150.238213 
L 139.773753 184.218559 
L 140.536569 188.462457 
L 141.299385 169.82219 
L 142.062201 144.057018 
L 142.825017 111.360626 
L 143.587833 129.541351 
L 145.113465 188.968481 
L 145.876282 195.031809 
L 146.639098 155.209939 
L 147.401914 139.35228 
L 148.16473 132.345625 
L 148.927546 158.497202 
L 149.690362 149.478928 
L 150.453178 127.973909 
L 151.215995 196.859693 
L 151.978811 217.918262 
L 152.741627 170.203684 
L 153.504443 94.023959 
L 154.267259 102.585763 
L 155.030075 162.748007 
L 156.555707 206.413299 
L 157.318524 173.771932 
L 158.08134 106.679253 
L 158.844156 128.22602 
L 159.606972 174.149162 
L 160.369788 175.848018 
L 161.132604 160.568981 
L 161.89542 112.624551 
L 162.658237 156.137768 
L 163.421053 223.156152 
L 164.183869 181.901515 
L 164.946685 123.98874 
L 165.709501 110.211483 
L 166.472317 147.66139 
L 167.235133 162.987436 
L 167.997949 184.503233 
L 168.760766 198.825416 
L 169.523582 142.723292 
L 170.286398 121.026599 
L 171.049214 109.885738 
L 171.81203 159.703136 
L 172.574846 246.24 
L 173.337662 192.678981 
L 174.100478 91.683638 
L 174.863295 96.875871 
L 175.626111 189.822536 
L 176.388927 203.422422 
L 177.151743 131.22692 
L 177.914559 136.592222 
L 178.677375 167.19224 
L 179.440191 213.172664 
L 180.965824 88.206483 
L 181.72864 151.65055 
L 182.491456 182.607852 
L 183.254272 174.457174 
L 184.017088 117.265492 
L 185.54272 242.431128 
L 186.305537 164.787924 
L 187.068353 44.64 
L 187.831169 101.224203 
L 188.593985 199.2734 
L 189.356801 205.751388 
L 190.119617 202.131596 
L 190.882433 136.037301 
L 191.645249 148.20806 
L 192.408066 121.985379 
L 193.170882 153.20881 
L 193.933698 138.976982 
L 194.696514 134.100368 
L 195.45933 222.170384 
L 196.222146 212.023602 
L 196.984962 161.132796 
L 197.747779 92.587852 
L 198.510595 114.044208 
L 199.273411 154.618746 
L 200.036227 181.310329 
L 200.799043 191.438568 
L 201.561859 180.516016 
L 202.324675 137.592211 
L 203.087491 129.836275 
L 204.613124 158.280927 
L 205.37594 162.271495 
L 206.901572 183.850871 
L 207.664388 163.679971 
L 208.427204 115.8467 
L 209.190021 108.24063 
L 209.952837 187.46264 
L 210.715653 196.839982 
L 211.478469 181.756498 
L 213.004101 117.213823 
L 214.529733 156.368133 
L 215.29255 167.125005 
L 216.055366 170.042341 
L 216.818182 172.267261 
L 217.580998 164.11648 
L 218.343814 141.298272 
L 219.10663 136.384989 
L 220.632262 176.314155 
L 221.395079 164.813266 
L 222.157895 157.02185 
L 222.920711 157.144901 
L 223.683527 150.316759 
L 224.446343 135.883828 
L 225.209159 145.018952 
L 225.971975 170.655894 
L 226.734792 181.886952 
L 227.497608 164.475121 
L 228.260424 139.693028 
L 229.02324 141.076865 
L 229.786056 167.082981 
L 230.548872 171.882069 
L 231.311688 155.817399 
L 232.074504 146.869931 
L 232.837321 154.906553 
L 233.600137 166.281993 
L 235.125769 144.664775 
L 235.888585 152.014722 
L 236.651401 163.253127 
L 237.414217 163.024993 
L 238.177033 159.260743 
L 238.93985 153.11716 
L 239.702666 157.818949 
L 241.228298 157.359436 
L 241.991114 160.810122 
L 242.75393 160.389702 
L 243.516746 155.872274 
L 245.042379 149.511324 
L 245.805195 154.961618 
L 246.568011 157.660613 
L 247.330827 157.740422 
L 248.093643 159.834479 
L 248.856459 163.47876 
L 249.619275 162.003297 
L 250.382092 152.288103 
L 251.144908 146.481697 
L 251.907724 152.194857 
L 252.67054 166.096789 
L 253.433356 167.528179 
L 254.196172 164.235933 
L 254.958988 157.403789 
L 255.721805 142.562847 
L 256.484621 137.62236 
L 258.010253 170.158694 
L 258.773069 170.11091 
L 259.535885 160.14801 
L 261.061517 153.86215 
L 261.824334 147.119928 
L 262.58715 145.902866 
L 263.349966 164.103759 
L 264.112782 175.146165 
L 264.875598 165.08324 
L 265.638414 149.351479 
L 266.40123 145.491898 
L 267.164046 154.513873 
L 267.926863 156.703364 
L 268.689679 151.038525 
L 269.452495 154.109313 
L 270.215311 166.45146 
L 270.978127 170.861678 
L 271.740943 158.844536 
L 272.503759 142.830217 
L 273.266576 146.462196 
L 274.029392 164.181772 
L 274.792208 171.099769 
L 275.555024 160.971547 
L 276.31784 149.322761 
L 277.080656 147.468132 
L 277.843472 156.202475 
L 278.606288 162.289048 
L 279.369105 157.304413 
L 280.131921 149.556777 
L 280.894737 153.883606 
L 281.657553 165.215398 
L 282.420369 167.128703 
L 283.183185 152.382136 
L 283.946001 143.823258 
L 285.471634 173.46996 
L 286.23445 163.675679 
L 286.997266 144.993687 
L 287.760082 143.492028 
L 288.522898 161.478637 
L 289.285714 169.454368 
L 290.04853 153.978942 
L 290.811347 143.139604 
L 291.574163 152.445219 
L 292.336979 166.146486 
L 293.099795 167.354179 
L 293.862611 157.227538 
L 294.625427 149.83527 
L 295.388243 153.730998 
L 296.151059 161.908343 
L 296.913876 164.557595 
L 297.676692 158.40488 
L 298.439508 150.530412 
L 299.202324 148.032864 
L 300.727956 162.885102 
L 301.490772 160.587919 
L 302.253589 153.979775 
L 303.016405 154.777601 
L 303.779221 160.234469 
L 304.542037 158.221486 
L 305.304853 150.738918 
L 306.067669 153.873345 
L 306.830485 165.629205 
L 307.593301 167.622343 
L 308.356118 158.116285 
L 309.118934 150.588573 
L 309.88175 150.353909 
L 310.644566 151.245914 
L 311.407382 153.897732 
L 312.170198 161.339021 
L 312.933014 164.666757 
L 314.458647 152.403543 
L 315.221463 152.215103 
L 316.747095 160.231115 
L 317.509911 163.163109 
L 318.272727 165.509321 
L 319.035543 158.840698 
L 319.79836 145.217305 
L 320.561176 141.856871 
L 322.086808 175.371099 
L 322.849624 160.918764 
L 323.61244 138.682735 
L 324.375256 146.537122 
L 325.138072 171.312198 
L 325.900889 173.784962 
L 326.663705 151.677417 
L 327.426521 137.193266 
L 328.189337 152.683241 
L 328.952153 172.817049 
L 329.714969 168.951156 
L 330.477785 156.106375 
L 331.240602 150.778893 
L 332.003418 150.413221 
L 332.766234 149.848304 
L 333.52905 156.484965 
L 334.291866 167.540087 
L 335.054682 162.011991 
L 335.817498 145.224827 
L 336.580314 147.128626 
L 337.343131 171.872595 
L 338.105947 171.289334 
L 339.631579 149.741591 
L 340.394395 108.644937 
L 341.920027 206.998706 
L 342.682843 171.360326 
L 343.44566 174.809626 
L 344.208476 145.775328 
L 344.971292 108.236793 
L 345.734108 130.392448 
L 346.496924 172.572135 
L 347.25974 186.907169 
L 348.022556 166.672873 
L 348.785373 152.613301 
L 349.548189 155.035608 
L 350.311005 162.55156 
L 351.073821 146.75783 
L 351.836637 146.432777 
L 352.599453 161.14442 
L 353.362269 169.178611 
L 354.125085 162.274297 
L 354.887902 153.278925 
L 355.650718 152.527433 
L 357.17635 141.632403 
L 357.939166 157.541215 
L 358.701982 183.588342 
L 359.464798 182.073932 
L 360.227614 151.941813 
L 360.990431 96.997831 
L 362.516063 206.898682 
L 363.278879 176.253338 
L 364.041695 162.285587 
L 364.804511 118.050956 
L 365.567327 144.540367 
L 366.330144 161.399675 
L 367.09296 154.763295 
L 367.855776 153.14895 
L 368.618592 173.447581 
L 369.381408 180.056514 
L 370.144224 159.136648 
L 370.90704 121.312011 
L 371.669856 124.223887 
L 372.432673 197.819859 
L 373.195489 188.261351 
L 373.958305 161.539972 
L 374.721121 128.125088 
L 376.246753 155.201623 
L 377.009569 156.17625 
L 377.772386 157.534547 
L 378.535202 173.307736 
L 379.298018 169.810201 
L 380.060834 156.228503 
L 380.82365 127.084292 
L 381.586466 127.865413 
L 382.349282 193.65087 
L 383.112098 197.346263 
L 383.874915 165.55612 
L 384.637731 119.98313 
L 385.400547 124.504346 
L 386.163363 160.534065 
L 386.926179 184.637835 
L 387.688995 160.437071 
L 388.451811 144.210882 
L 389.214627 161.263215 
L 389.977444 160.786325 
L 390.74026 172.237504 
L 391.503076 126.573066 
L 392.265892 115.442158 
L 393.028708 205.307482 
L 393.791524 204.8258 
L 394.55434 167.054604 
L 395.317157 105.579101 
L 396.079973 115.474757 
L 396.842789 178.915583 
L 397.605605 190.636352 
L 398.368421 141.430554 
L 399.131237 135.961329 
L 399.894053 187.937617 
L 400.656869 164.361019 
L 401.419686 158.759357 
L 402.182502 96.43507 
L 402.945318 142.171983 
L 403.708134 245.222304 
L 404.47095 191.831324 
L 405.233766 110.402998 
L 405.996582 105.133874 
L 406.759398 159.716484 
L 407.522215 182.496754 
L 408.285031 173.069515 
L 409.047847 122.878781 
L 409.810663 175.520056 
L 410.573479 202.033491 
L 411.336295 129.968957 
L 412.099111 126.638482 
L 412.861928 154.347773 
L 414.38756 148.442261 
L 415.150376 194.056514 
L 415.913192 188.532011 
L 416.676008 160.536477 
L 418.20164 116.596332 
L 418.964457 129.703419 
L 419.727273 185.980106 
L 420.490089 186.334667 
L 421.252905 147.351027 
L 422.015721 146.990454 
L 422.778537 180.687088 
L 423.541353 154.666448 
L 424.30417 146.04887 
L 425.066986 113.190982 
L 425.829802 145.533761 
L 426.592618 236.512822 
L 427.355434 185.394987 
L 428.11825 116.528994 
L 428.881066 115.494727 
L 429.643882 160.164627 
L 430.406699 167.244243 
L 431.169515 176.059832 
L 431.932331 160.916659 
L 432.695147 163.534147 
L 433.457963 139.282016 
L 434.220779 130.87316 
L 434.983595 155.85127 
L 435.746411 185.310539 
L 436.509228 193.166144 
L 437.272044 129.926515 
L 438.03486 103.187294 
L 438.797676 176.028638 
L 439.560492 209.816586 
L 440.323308 176.76203 
L 441.086124 122.074125 
L 441.848941 98.146595 
L 442.611757 171.427074 
L 443.374573 204.379189 
L 444.137389 167.1892 
L 444.900205 120.694885 
L 445.663021 150.797639 
L 446.425837 170.697703 
L 447.188653 173.24005 
L 447.95147 121.877669 
L 448.714286 135.74875 
L 449.477102 222.684363 
L 450.239918 193.789285 
L 451.002734 115.067719 
L 451.76555 98.734864 
L 453.291183 209.88806 
L 454.053999 189.380988 
L 454.816815 89.498496 
L 455.579631 129.431751 
L 456.342447 203.153968 
L 457.105263 200.053961 
L 457.868079 132.083929 
L 458.630895 101.962552 
L 460.156528 220.502985 
L 460.919344 185.048272 
L 461.68216 109.2754 
L 462.444976 104.49174 
L 463.970608 198.223035 
L 464.733424 192.599341 
L 465.496241 173.307551 
L 466.259057 126.473391 
L 467.021873 120.966749 
L 467.784689 146.068073 
L 468.547505 188.140881 
L 469.310321 176.384058 
L 470.073137 144.392197 
L 470.835954 131.664067 
L 471.59877 163.100616 
L 472.361586 180.653755 
L 473.124402 164.215361 
L 473.887218 151.030281 
L 474.650034 155.877597 
L 475.41285 155.824917 
L 476.175666 137.028369 
L 476.938483 144.718199 
L 477.701299 166.587147 
L 478.464115 173.394537 
L 479.226931 149.2103 
L 479.989747 155.817741 
L 480.752563 175.606741 
L 481.515379 174.978535 
L 482.278195 140.560921 
L 483.041012 135.916726 
L 483.803828 162.085124 
L 484.566644 166.803068 
L 485.32946 128.033981 
L 486.092276 118.923719 
L 487.617908 243.403511 
L 488.380725 194.41368 
L 489.143541 106.214284 
L 489.906357 83.867665 
L 491.431989 178.702476 
L 492.194805 188.371398 
L 492.957621 187.688541 
L 493.720437 176.997736 
L 494.483254 150.157811 
L 495.24607 118.400441 
L 496.008886 124.368276 
L 496.771702 170.337141 
L 497.534518 197.796486 
L 498.297334 158.375914 
L 499.06015 130.211962 
L 499.822967 143.238941 
L 500.585783 166.52171 
L 501.348599 173.818547 
L 502.111415 156.512897 
L 502.874231 146.816274 
L 504.399863 178.071492 
L 505.162679 167.211294 
L 505.925496 125.216472 
L 506.688312 113.351318 
L 507.451128 151.080976 
L 508.213944 213.848993 
L 508.97676 214.094615 
L 509.739576 132.328446 
L 510.502392 94.916229 
L 511.265208 124.153363 
L 512.028025 179.346779 
L 512.790841 198.988772 
L 513.553657 168.441309 
L 514.316473 157.385063 
L 515.079289 158.979458 
L 515.842105 147.878766 
L 516.604921 127.370869 
L 517.367738 143.379959 
L 518.130554 175.756322 
L 518.89337 172.536296 
L 519.656186 144.817421 
L 520.419002 148.699108 
L 521.181818 184.814454 
L 521.944634 183.78527 
L 522.70745 137.010815 
L 523.470267 109.521533 
L 524.233083 145.228608 
L 524.995899 186.831384 
L 525.758715 188.384219 
L 526.521531 160.606235 
L 527.284347 142.443959 
L 528.047163 137.382491 
L 528.809979 144.093633 
L 530.335612 182.724645 
L 531.098428 170.921231 
L 531.861244 141.419711 
L 532.62406 131.978049 
L 534.149692 173.543323 
L 534.912509 164.351386 
L 535.675325 152.454984 
L 536.438141 161.04577 
L 537.200957 171.441616 
L 537.963773 157.384819 
L 538.726589 132.865478 
L 539.489405 133.773179 
L 540.252221 163.77336 
L 541.015038 184.920605 
L 541.777854 174.083808 
L 542.54067 147.429139 
L 543.303486 136.075046 
L 544.066302 145.625415 
L 544.829118 166.202819 
L 545.591934 171.817606 
L 546.354751 156.24034 
L 547.117567 147.656874 
L 548.643199 165.577146 
L 549.406015 178.042658 
L 550.168831 159.589236 
L 550.931647 123.355475 
L 551.694463 125.869737 
L 552.45728 149.304757 
L 553.220096 182.14945 
L 553.982912 201.824818 
L 554.745728 182.582071 
L 555.508544 135.482623 
L 556.27136 103.711083 
L 557.034176 132.987296 
L 557.796992 189.339125 
L 558.559809 200.431754 
L 559.322625 158.787505 
L 560.085441 124.083023 
L 560.848257 140.925831 
L 561.611073 172.173027 
L 562.373889 166.383865 
L 563.136705 139.79234 
L 563.899522 145.607523 
L 564.662338 183.547103 
L 565.425154 192.2302 
L 566.950786 108.859695 
L 567.713602 130.646948 
L 568.476418 183.741047 
L 569.239234 194.788665 
L 570.002051 154.031782 
L 570.764867 132.497386 
L 571.527683 160.778992 
L 572.290499 181.602988 
L 573.816131 114.962149 
L 574.578947 146.762363 
L 575.341763 212.606797 
L 576.10458 198.471024 
L 576.867396 125.462085 
L 577.630212 95.396783 
L 578.393028 132.423156 
L 579.155844 204.001917 
L 579.91866 197.647864 
L 580.681476 153.681071 
L 581.444293 141.608288 
L 582.207109 159.532465 
L 582.969925 155.908414 
L 583.732741 131.461459 
L 584.495557 137.546636 
L 586.021189 200.051652 
L 586.784005 178.315553 
L 587.546822 133.350745 
L 588.309638 122.170789 
L 589.072454 120.741657 
L 589.83527 154.036377 
L 590.598086 221.244862 
L 591.360902 213.865505 
L 592.123718 143.041317 
L 592.886535 83.240957 
L 593.649351 126.200775 
L 594.412167 201.926659 
L 595.174983 200.655407 
L 595.937799 125.723691 
L 596.700615 103.231364 
L 597.463431 170.235346 
L 598.226247 224.625939 
L 599.75188 124.812012 
L 600.514696 99.876609 
L 601.277512 126.767056 
L 602.040328 208.044894 
L 602.803144 203.255861 
L 603.56596 180.691375 
L 604.328776 123.177801 
L 605.091593 108.659228 
L 606.617225 185.804305 
L 607.380041 174.214845 
L 608.142857 148.637146 
L 608.905673 158.861106 
L 609.668489 158.915844 
L 610.431306 162.264951 
L 611.194122 118.246489 
L 611.956938 138.71063 
L 612.719754 208.947989 
L 613.48257 195.850206 
L 614.245386 152.108855 
L 615.008202 116.555872 
L 615.771018 141.609887 
L 616.533835 151.714455 
L 617.296651 141.465377 
L 618.059467 167.943714 
L 618.822283 207.229397 
L 619.585099 190.68592 
L 620.347915 108.542711 
L 621.110731 107.126382 
L 621.873548 178.918101 
L 622.636364 204.782689 
L 622.636364 204.782689 
" clip-path="url(#p83dd16b3c0)" style="fill: none; stroke: #1f77b4; stroke-width: 1.5; stroke-linecap: square"/>
   </g>
   <g id="patch_3">
    <path d="M 90 256.32 
L 90 34.56 
" style="fill: none; stroke: #000000; stroke-width: 0.8; stroke-linejoin: miter; stroke-linecap: square"/>
   </g>
   <g id="patch_4">
    <path d="M 648 256.32 
L 648 34.56 
" style="fill: none; stroke: #000000; stroke-width: 0.8; stroke-linejoin: miter; stroke-linecap: square"/>
   </g>
   <g id="patch_5">
    <path d="M 90 256.32 
L 648 256.32 
" style="fill: none; stroke: #000000; stroke-width: 0.8; stroke-linejoin: miter; stroke-linecap: square"/>
   </g>
   <g id="patch_6">
    <path d="M 90 34.56 
L 648 34.56 
" style="fill: none; stroke: #000000; stroke-width: 0.8; stroke-linejoin: miter; stroke-linecap: square"/>
   </g>
   <g id="text_15">
    <!-- Postural Tremor -->
    <g transform="translate(322.145625 28.56) scale(0.12 -0.12)">
     <defs>
      <path id="DejaVuSans-50" d="M 1259 4147 
L 1259 2394 
L 2053 2394 
Q 2494 2394 2734 2622 
Q 2975 2850 2975 3272 
Q 2975 3691 2734 3919 
Q 2494 4147 2053 4147 
L 1259 4147 
z
M 628 4666 
L 2053 4666 
Q 2838 4666 3239 4311 
Q 3641 3956 3641 3272 
Q 3641 2581 3239 2228 
Q 2838 1875 2053 1875 
L 1259 1875 
L 1259 0 
L 628 0 
L 628 4666 
z
" transform="scale(0.015625)"/>
      <path id="DejaVuSans-6f" d="M 1959 3097 
Q 1497 3097 1228 2736 
Q 959 2375 959 1747 
Q 959 1119 1226 758 
Q 1494 397 1959 397 
Q 2419 397 2687 759 
Q 2956 1122 2956 1747 
Q 2956 2369 2687 2733 
Q 2419 3097 1959 3097 
z
M 1959 3584 
Q 2709 3584 3137 3096 
Q 3566 2609 3566 1747 
Q 3566 888 3137 398 
Q 2709 -91 1959 -91 
Q 1206 -91 779 398 
Q 353 888 353 1747 
Q 353 2609 779 3096 
Q 1206 3584 1959 3584 
z
" transform="scale(0.015625)"/>
      <path id="DejaVuSans-73" d="M 2834 3397 
L 2834 2853 
Q 2591 2978 2328 3040 
Q 2066 3103 1784 3103 
Q 1356 3103 1142 2972 
Q 928 2841 928 2578 
Q 928 2378 1081 2264 
Q 1234 2150 1697 2047 
L 1894 2003 
Q 2506 1872 2764 1633 
Q 3022 1394 3022 966 
Q 3022 478 2636 193 
Q 2250 -91 1575 -91 
Q 1294 -91 989 -36 
Q 684 19 347 128 
L 347 722 
Q 666 556 975 473 
Q 1284 391 1588 391 
Q 1994 391 2212 530 
Q 2431 669 2431 922 
Q 2431 1156 2273 1281 
Q 2116 1406 1581 1522 
L 1381 1569 
Q 847 1681 609 1914 
Q 372 2147 372 2553 
Q 372 3047 722 3315 
Q 1072 3584 1716 3584 
Q 2034 3584 2315 3537 
Q 2597 3491 2834 3397 
z
" transform="scale(0.015625)"/>
      <path id="DejaVuSans-72" d="M 2631 2963 
Q 2534 3019 2420 3045 
Q 2306 3072 2169 3072 
Q 1681 3072 1420 2755 
Q 1159 2438 1159 1844 
L 1159 0 
L 581 0 
L 581 3500 
L 1159 3500 
L 1159 2956 
Q 1341 3275 1631 3429 
Q 1922 3584 2338 3584 
Q 2397 3584 2469 3576 
Q 2541 3569 2628 3553 
L 2631 2963 
z
" transform="scale(0.015625)"/>
      <path id="DejaVuSans-20" transform="scale(0.015625)"/>
      <path id="DejaVuSans-54" d="M -19 4666 
L 3928 4666 
L 3928 4134 
L 2272 4134 
L 2272 0 
L 1638 0 
L 1638 4134 
L -19 4134 
L -19 4666 
z
" transform="scale(0.015625)"/>
     </defs>
     <use xlink:href="#DejaVuSans-50"/>
     <use xlink:href="#DejaVuSans-6f" x="56.677734"/>
     <use xlink:href="#DejaVuSans-73" x="117.859375"/>
     <use xlink:href="#DejaVuSans-74" x="169.958984"/>
     <use xlink:href="#DejaVuSans-75" x="209.167969"/>
     <use xlink:href="#DejaVuSans-72" x="272.546875"/>
     <use xlink:href="#DejaVuSans-61" x="313.660156"/>
     <use xlink:href="#DejaVuSans-6c" x="374.939453"/>
     <use xlink:href="#DejaVuSans-20" x="402.722656"/>
     <use xlink:href="#DejaVuSans-54" x="434.509766"/>
     <use xlink:href="#DejaVuSans-72" x="480.84375"/>
     <use xlink:href="#DejaVuSans-65" x="519.707031"/>
     <use xlink:href="#DejaVuSans-6d" x="581.230469"/>
     <use xlink:href="#DejaVuSans-6f" x="678.642578"/>
     <use xlink:href="#DejaVuSans-72" x="739.824219"/>
    </g>
   </g>
   <g id="legend_1">
    <g id="patch_7">
     <path d="M 538.059375 57.238125 
L 641 57.238125 
Q 643 57.238125 643 55.238125 
L 643 41.56 
Q 643 39.56 641 39.56 
L 538.059375 39.56 
Q 536.059375 39.56 536.059375 41.56 
L 536.059375 55.238125 
Q 536.059375 57.238125 538.059375 57.238125 
z
" style="fill: #ffffff; opacity: 0.8; stroke: #cccccc; stroke-linejoin: miter"/>
    </g>
    <g id="line2d_14">
     <path d="M 540.059375 47.658438 
L 550.059375 47.658438 
L 560.059375 47.658438 
" style="fill: none; stroke: #1f77b4; stroke-width: 1.5; stroke-linecap: square"/>
    </g>
    <g id="text_16">
     <!-- Filtered Signal -->
     <g transform="translate(568.059375 51.158438) scale(0.1 -0.1)">
      <defs>
       <path id="DejaVuSans-46" d="M 628 4666 
L 3309 4666 
L 3309 4134 
L 1259 4134 
L 1259 2759 
L 3109 2759 
L 3109 2228 
L 1259 2228 
L 1259 0 
L 628 0 
L 628 4666 
z
" transform="scale(0.015625)"/>
       <path id="DejaVuSans-67" d="M 2906 1791 
Q 2906 2416 2648 2759 
Q 2391 3103 1925 3103 
Q 1463 3103 1205 2759 
Q 947 2416 947 1791 
Q 947 1169 1205 825 
Q 1463 481 1925 481 
Q 2391 481 2648 825 
Q 2906 1169 2906 1791 
z
M 3481 434 
Q 3481 -459 3084 -895 
Q 2688 -1331 1869 -1331 
Q 1566 -1331 1297 -1286 
Q 1028 -1241 775 -1147 
L 775 -588 
Q 1028 -725 1275 -790 
Q 1522 -856 1778 -856 
Q 2344 -856 2625 -561 
Q 2906 -266 2906 331 
L 2906 616 
Q 2728 306 2450 153 
Q 2172 0 1784 0 
Q 1141 0 747 490 
Q 353 981 353 1791 
Q 353 2603 747 3093 
Q 1141 3584 1784 3584 
Q 2172 3584 2450 3431 
Q 2728 3278 2906 2969 
L 2906 3500 
L 3481 3500 
L 3481 434 
z
" transform="scale(0.015625)"/>
       <path id="DejaVuSans-6e" d="M 3513 2113 
L 3513 0 
L 2938 0 
L 2938 2094 
Q 2938 2591 2744 2837 
Q 2550 3084 2163 3084 
Q 1697 3084 1428 2787 
Q 1159 2491 1159 1978 
L 1159 0 
L 581 0 
L 581 3500 
L 1159 3500 
L 1159 2956 
Q 1366 3272 1645 3428 
Q 1925 3584 2291 3584 
Q 2894 3584 3203 3211 
Q 3513 2838 3513 2113 
z
" transform="scale(0.015625)"/>
      </defs>
      <use xlink:href="#DejaVuSans-46"/>
      <use xlink:href="#DejaVuSans-69" x="50.269531"/>
      <use xlink:href="#DejaVuSans-6c" x="78.052734"/>
      <use xlink:href="#DejaVuSans-74" x="105.835938"/>
      <use xlink:href="#DejaVuSans-65" x="145.044922"/>
      <use xlink:href="#DejaVuSans-72" x="206.568359"/>
      <use xlink:href="#DejaVuSans-65" x="245.431641"/>
      <use xlink:href="#DejaVuSans-64" x="306.955078"/>
      <use xlink:href="#DejaVuSans-20" x="370.431641"/>
      <use xlink:href="#DejaVuSans-53" x="402.21875"/>
      <use xlink:href="#DejaVuSans-69" x="465.695312"/>
      <use xlink:href="#DejaVuSans-67" x="493.478516"/>
      <use xlink:href="#DejaVuSans-6e" x="556.955078"/>
      <use xlink:href="#DejaVuSans-61" x="620.333984"/>
      <use xlink:href="#DejaVuSans-6c" x="681.613281"/>
     </g>
    </g>
   </g>
  </g>
 </g>
 <defs>
  <clipPath id="p83dd16b3c0">
   <rect x="90" y="34.56" width="558" height="221.76"/>
  </clipPath>
 </defs>
</svg>
