<?xml version="1.0" encoding="utf-8" standalone="no"?>
<!DOCTYPE svg PUBLIC "-//W3C//DTD SVG 1.1//EN"
  "http://www.w3.org/Graphics/SVG/1.1/DTD/svg11.dtd">
<svg xmlns:xlink="http://www.w3.org/1999/xlink" width="720pt" height="288pt" viewBox="0 0 720 288" xmlns="http://www.w3.org/2000/svg" version="1.1">
 <metadata>
  <rdf:RDF xmlns:dc="http://purl.org/dc/elements/1.1/" xmlns:cc="http://creativecommons.org/ns#" xmlns:rdf="http://www.w3.org/1999/02/22-rdf-syntax-ns#">
   <cc:Work>
    <dc:type rdf:resource="http://purl.org/dc/dcmitype/StillImage"/>
    <dc:date>2024-10-30T16:12:19.292835</dc:date>
    <dc:format>image/svg+xml</dc:format>
    <dc:creator>
     <cc:Agent>
      <dc:title>Matplotlib v3.9.2, https://matplotlib.org/</dc:title>
     </cc:Agent>
    </dc:creator>
   </cc:Work>
  </rdf:RDF>
 </metadata>
 <defs>
  <style type="text/css">*{stroke-linejoin: round; stroke-linecap: butt}</style>
 </defs>
 <g id="figure_1">
  <g id="patch_1">
   <path d="M 0 288 
L 720 288 
L 720 0 
L 0 0 
z
" style="fill: #ffffff"/>
  </g>
  <g id="axes_1">
   <g id="patch_2">
    <path d="M 90 256.32 
L 648 256.32 
L 648 34.56 
L 90 34.56 
z
" style="fill: #ffffff"/>
   </g>
   <g id="matplotlib.axis_1">
    <g id="xtick_1">
     <g id="line2d_1">
      <path d="M 115.363636 256.32 
L 115.363636 34.56 
" clip-path="url(#p84d2166c9a)" style="fill: none; stroke: #cccccc; stroke-linecap: round"/>
     </g>
     <g id="text_1">
      <!-- 0 -->
      <g style="fill: #262626" transform="translate(112.305121 273.693594) scale(0.11 -0.11)">
       <defs>
        <path id="ArialMT-30" d="M 266 2259 
Q 266 3072 433 3567 
Q 600 4063 929 4331 
Q 1259 4600 1759 4600 
Q 2128 4600 2406 4451 
Q 2684 4303 2865 4023 
Q 3047 3744 3150 3342 
Q 3253 2941 3253 2259 
Q 3253 1453 3087 958 
Q 2922 463 2592 192 
Q 2263 -78 1759 -78 
Q 1097 -78 719 397 
Q 266 969 266 2259 
z
M 844 2259 
Q 844 1131 1108 757 
Q 1372 384 1759 384 
Q 2147 384 2411 759 
Q 2675 1134 2675 2259 
Q 2675 3391 2411 3762 
Q 2147 4134 1753 4134 
Q 1366 4134 1134 3806 
Q 844 3388 844 2259 
z
" transform="scale(0.015625)"/>
       </defs>
       <use xlink:href="#ArialMT-30"/>
      </g>
     </g>
    </g>
    <g id="xtick_2">
     <g id="line2d_2">
      <path d="M 222.609456 256.32 
L 222.609456 34.56 
" clip-path="url(#p84d2166c9a)" style="fill: none; stroke: #cccccc; stroke-linecap: round"/>
     </g>
     <g id="text_2">
      <!-- 100 -->
      <g style="fill: #262626" transform="translate(213.433909 273.693594) scale(0.11 -0.11)">
       <defs>
        <path id="ArialMT-31" d="M 2384 0 
L 1822 0 
L 1822 3584 
Q 1619 3391 1289 3197 
Q 959 3003 697 2906 
L 697 3450 
Q 1169 3672 1522 3987 
Q 1875 4303 2022 4600 
L 2384 4600 
L 2384 0 
z
" transform="scale(0.015625)"/>
       </defs>
       <use xlink:href="#ArialMT-31"/>
       <use xlink:href="#ArialMT-30" x="55.615234"/>
       <use xlink:href="#ArialMT-30" x="111.230469"/>
      </g>
     </g>
    </g>
    <g id="xtick_3">
     <g id="line2d_3">
      <path d="M 329.855276 256.32 
L 329.855276 34.56 
" clip-path="url(#p84d2166c9a)" style="fill: none; stroke: #cccccc; stroke-linecap: round"/>
     </g>
     <g id="text_3">
      <!-- 200 -->
      <g style="fill: #262626" transform="translate(320.679729 273.693594) scale(0.11 -0.11)">
       <defs>
        <path id="ArialMT-32" d="M 3222 541 
L 3222 0 
L 194 0 
Q 188 203 259 391 
Q 375 700 629 1000 
Q 884 1300 1366 1694 
Q 2113 2306 2375 2664 
Q 2638 3022 2638 3341 
Q 2638 3675 2398 3904 
Q 2159 4134 1775 4134 
Q 1369 4134 1125 3890 
Q 881 3647 878 3216 
L 300 3275 
Q 359 3922 746 4261 
Q 1134 4600 1788 4600 
Q 2447 4600 2831 4234 
Q 3216 3869 3216 3328 
Q 3216 3053 3103 2787 
Q 2991 2522 2730 2228 
Q 2469 1934 1863 1422 
Q 1356 997 1212 845 
Q 1069 694 975 541 
L 3222 541 
z
" transform="scale(0.015625)"/>
       </defs>
       <use xlink:href="#ArialMT-32"/>
       <use xlink:href="#ArialMT-30" x="55.615234"/>
       <use xlink:href="#ArialMT-30" x="111.230469"/>
      </g>
     </g>
    </g>
    <g id="xtick_4">
     <g id="line2d_4">
      <path d="M 437.101096 256.32 
L 437.101096 34.56 
" clip-path="url(#p84d2166c9a)" style="fill: none; stroke: #cccccc; stroke-linecap: round"/>
     </g>
     <g id="text_4">
      <!-- 300 -->
      <g style="fill: #262626" transform="translate(427.925549 273.693594) scale(0.11 -0.11)">
       <defs>
        <path id="ArialMT-33" d="M 269 1209 
L 831 1284 
Q 928 806 1161 595 
Q 1394 384 1728 384 
Q 2125 384 2398 659 
Q 2672 934 2672 1341 
Q 2672 1728 2419 1979 
Q 2166 2231 1775 2231 
Q 1616 2231 1378 2169 
L 1441 2663 
Q 1497 2656 1531 2656 
Q 1891 2656 2178 2843 
Q 2466 3031 2466 3422 
Q 2466 3731 2256 3934 
Q 2047 4138 1716 4138 
Q 1388 4138 1169 3931 
Q 950 3725 888 3313 
L 325 3413 
Q 428 3978 793 4289 
Q 1159 4600 1703 4600 
Q 2078 4600 2393 4439 
Q 2709 4278 2876 4000 
Q 3044 3722 3044 3409 
Q 3044 3113 2884 2869 
Q 2725 2625 2413 2481 
Q 2819 2388 3044 2092 
Q 3269 1797 3269 1353 
Q 3269 753 2831 336 
Q 2394 -81 1725 -81 
Q 1122 -81 723 278 
Q 325 638 269 1209 
z
" transform="scale(0.015625)"/>
       </defs>
       <use xlink:href="#ArialMT-33"/>
       <use xlink:href="#ArialMT-30" x="55.615234"/>
       <use xlink:href="#ArialMT-30" x="111.230469"/>
      </g>
     </g>
    </g>
    <g id="xtick_5">
     <g id="line2d_5">
      <path d="M 544.346915 256.32 
L 544.346915 34.56 
" clip-path="url(#p84d2166c9a)" style="fill: none; stroke: #cccccc; stroke-linecap: round"/>
     </g>
     <g id="text_5">
      <!-- 400 -->
      <g style="fill: #262626" transform="translate(535.171368 273.693594) scale(0.11 -0.11)">
       <defs>
        <path id="ArialMT-34" d="M 2069 0 
L 2069 1097 
L 81 1097 
L 81 1613 
L 2172 4581 
L 2631 4581 
L 2631 1613 
L 3250 1613 
L 3250 1097 
L 2631 1097 
L 2631 0 
L 2069 0 
z
M 2069 1613 
L 2069 3678 
L 634 1613 
L 2069 1613 
z
" transform="scale(0.015625)"/>
       </defs>
       <use xlink:href="#ArialMT-34"/>
       <use xlink:href="#ArialMT-30" x="55.615234"/>
       <use xlink:href="#ArialMT-30" x="111.230469"/>
      </g>
     </g>
    </g>
    <g id="text_6">
     <!-- Sample -->
     <g style="fill: #262626" transform="translate(348.657188 288.615469) scale(0.12 -0.12)">
      <defs>
       <path id="ArialMT-53" d="M 288 1472 
L 859 1522 
Q 900 1178 1048 958 
Q 1197 738 1509 602 
Q 1822 466 2213 466 
Q 2559 466 2825 569 
Q 3091 672 3220 851 
Q 3350 1031 3350 1244 
Q 3350 1459 3225 1620 
Q 3100 1781 2813 1891 
Q 2628 1963 1997 2114 
Q 1366 2266 1113 2400 
Q 784 2572 623 2826 
Q 463 3081 463 3397 
Q 463 3744 659 4045 
Q 856 4347 1234 4503 
Q 1613 4659 2075 4659 
Q 2584 4659 2973 4495 
Q 3363 4331 3572 4012 
Q 3781 3694 3797 3291 
L 3216 3247 
Q 3169 3681 2898 3903 
Q 2628 4125 2100 4125 
Q 1550 4125 1298 3923 
Q 1047 3722 1047 3438 
Q 1047 3191 1225 3031 
Q 1400 2872 2139 2705 
Q 2878 2538 3153 2413 
Q 3553 2228 3743 1945 
Q 3934 1663 3934 1294 
Q 3934 928 3725 604 
Q 3516 281 3123 101 
Q 2731 -78 2241 -78 
Q 1619 -78 1198 103 
Q 778 284 539 648 
Q 300 1013 288 1472 
z
" transform="scale(0.015625)"/>
       <path id="ArialMT-61" d="M 2588 409 
Q 2275 144 1986 34 
Q 1697 -75 1366 -75 
Q 819 -75 525 192 
Q 231 459 231 875 
Q 231 1119 342 1320 
Q 453 1522 633 1644 
Q 813 1766 1038 1828 
Q 1203 1872 1538 1913 
Q 2219 1994 2541 2106 
Q 2544 2222 2544 2253 
Q 2544 2597 2384 2738 
Q 2169 2928 1744 2928 
Q 1347 2928 1158 2789 
Q 969 2650 878 2297 
L 328 2372 
Q 403 2725 575 2942 
Q 747 3159 1072 3276 
Q 1397 3394 1825 3394 
Q 2250 3394 2515 3294 
Q 2781 3194 2906 3042 
Q 3031 2891 3081 2659 
Q 3109 2516 3109 2141 
L 3109 1391 
Q 3109 606 3145 398 
Q 3181 191 3288 0 
L 2700 0 
Q 2613 175 2588 409 
z
M 2541 1666 
Q 2234 1541 1622 1453 
Q 1275 1403 1131 1340 
Q 988 1278 909 1158 
Q 831 1038 831 891 
Q 831 666 1001 516 
Q 1172 366 1500 366 
Q 1825 366 2078 508 
Q 2331 650 2450 897 
Q 2541 1088 2541 1459 
L 2541 1666 
z
" transform="scale(0.015625)"/>
       <path id="ArialMT-6d" d="M 422 0 
L 422 3319 
L 925 3319 
L 925 2853 
Q 1081 3097 1340 3245 
Q 1600 3394 1931 3394 
Q 2300 3394 2536 3241 
Q 2772 3088 2869 2813 
Q 3263 3394 3894 3394 
Q 4388 3394 4653 3120 
Q 4919 2847 4919 2278 
L 4919 0 
L 4359 0 
L 4359 2091 
Q 4359 2428 4304 2576 
Q 4250 2725 4106 2815 
Q 3963 2906 3769 2906 
Q 3419 2906 3187 2673 
Q 2956 2441 2956 1928 
L 2956 0 
L 2394 0 
L 2394 2156 
Q 2394 2531 2256 2718 
Q 2119 2906 1806 2906 
Q 1569 2906 1367 2781 
Q 1166 2656 1075 2415 
Q 984 2175 984 1722 
L 984 0 
L 422 0 
z
" transform="scale(0.015625)"/>
       <path id="ArialMT-70" d="M 422 -1272 
L 422 3319 
L 934 3319 
L 934 2888 
Q 1116 3141 1344 3267 
Q 1572 3394 1897 3394 
Q 2322 3394 2647 3175 
Q 2972 2956 3137 2557 
Q 3303 2159 3303 1684 
Q 3303 1175 3120 767 
Q 2938 359 2589 142 
Q 2241 -75 1856 -75 
Q 1575 -75 1351 44 
Q 1128 163 984 344 
L 984 -1272 
L 422 -1272 
z
M 931 1641 
Q 931 1000 1190 694 
Q 1450 388 1819 388 
Q 2194 388 2461 705 
Q 2728 1022 2728 1688 
Q 2728 2322 2467 2637 
Q 2206 2953 1844 2953 
Q 1484 2953 1207 2617 
Q 931 2281 931 1641 
z
" transform="scale(0.015625)"/>
       <path id="ArialMT-6c" d="M 409 0 
L 409 4581 
L 972 4581 
L 972 0 
L 409 0 
z
" transform="scale(0.015625)"/>
       <path id="ArialMT-65" d="M 2694 1069 
L 3275 997 
Q 3138 488 2766 206 
Q 2394 -75 1816 -75 
Q 1088 -75 661 373 
Q 234 822 234 1631 
Q 234 2469 665 2931 
Q 1097 3394 1784 3394 
Q 2450 3394 2872 2941 
Q 3294 2488 3294 1666 
Q 3294 1616 3291 1516 
L 816 1516 
Q 847 969 1125 678 
Q 1403 388 1819 388 
Q 2128 388 2347 550 
Q 2566 713 2694 1069 
z
M 847 1978 
L 2700 1978 
Q 2663 2397 2488 2606 
Q 2219 2931 1791 2931 
Q 1403 2931 1139 2672 
Q 875 2413 847 1978 
z
" transform="scale(0.015625)"/>
      </defs>
      <use xlink:href="#ArialMT-53"/>
      <use xlink:href="#ArialMT-61" x="66.699219"/>
      <use xlink:href="#ArialMT-6d" x="122.314453"/>
      <use xlink:href="#ArialMT-70" x="205.615234"/>
      <use xlink:href="#ArialMT-6c" x="261.230469"/>
      <use xlink:href="#ArialMT-65" x="283.447266"/>
     </g>
    </g>
   </g>
   <g id="matplotlib.axis_2">
    <g id="ytick_1">
     <g id="line2d_6">
      <path d="M 90 228.398167 
L 648 228.398167 
" clip-path="url(#p84d2166c9a)" style="fill: none; stroke: #cccccc; stroke-linecap: round"/>
     </g>
     <g id="text_7">
      <!-- −0.04 -->
      <g style="fill: #262626" transform="translate(52.668281 232.334964) scale(0.11 -0.11)">
       <defs>
        <path id="ArialMT-2212" d="M 3381 1997 
L 356 1997 
L 356 2522 
L 3381 2522 
L 3381 1997 
z
" transform="scale(0.015625)"/>
        <path id="ArialMT-2e" d="M 581 0 
L 581 641 
L 1222 641 
L 1222 0 
L 581 0 
z
" transform="scale(0.015625)"/>
       </defs>
       <use xlink:href="#ArialMT-2212"/>
       <use xlink:href="#ArialMT-30" x="58.398438"/>
       <use xlink:href="#ArialMT-2e" x="114.013672"/>
       <use xlink:href="#ArialMT-30" x="141.796875"/>
       <use xlink:href="#ArialMT-34" x="197.412109"/>
      </g>
     </g>
    </g>
    <g id="ytick_2">
     <g id="line2d_7">
      <path d="M 90 200.187264 
L 648 200.187264 
" clip-path="url(#p84d2166c9a)" style="fill: none; stroke: #cccccc; stroke-linecap: round"/>
     </g>
     <g id="text_8">
      <!-- −0.02 -->
      <g style="fill: #262626" transform="translate(52.668281 204.124061) scale(0.11 -0.11)">
       <use xlink:href="#ArialMT-2212"/>
       <use xlink:href="#ArialMT-30" x="58.398438"/>
       <use xlink:href="#ArialMT-2e" x="114.013672"/>
       <use xlink:href="#ArialMT-30" x="141.796875"/>
       <use xlink:href="#ArialMT-32" x="197.412109"/>
      </g>
     </g>
    </g>
    <g id="ytick_3">
     <g id="line2d_8">
      <path d="M 90 171.976361 
L 648 171.976361 
" clip-path="url(#p84d2166c9a)" style="fill: none; stroke: #cccccc; stroke-linecap: round"/>
     </g>
     <g id="text_9">
      <!-- 0.00 -->
      <g style="fill: #262626" transform="translate(59.092969 175.913158) scale(0.11 -0.11)">
       <use xlink:href="#ArialMT-30"/>
       <use xlink:href="#ArialMT-2e" x="55.615234"/>
       <use xlink:href="#ArialMT-30" x="83.398438"/>
       <use xlink:href="#ArialMT-30" x="139.013672"/>
      </g>
     </g>
    </g>
    <g id="ytick_4">
     <g id="line2d_9">
      <path d="M 90 143.765458 
L 648 143.765458 
" clip-path="url(#p84d2166c9a)" style="fill: none; stroke: #cccccc; stroke-linecap: round"/>
     </g>
     <g id="text_10">
      <!-- 0.02 -->
      <g style="fill: #262626" transform="translate(59.092969 147.702255) scale(0.11 -0.11)">
       <use xlink:href="#ArialMT-30"/>
       <use xlink:href="#ArialMT-2e" x="55.615234"/>
       <use xlink:href="#ArialMT-30" x="83.398438"/>
       <use xlink:href="#ArialMT-32" x="139.013672"/>
      </g>
     </g>
    </g>
    <g id="ytick_5">
     <g id="line2d_10">
      <path d="M 90 115.554555 
L 648 115.554555 
" clip-path="url(#p84d2166c9a)" style="fill: none; stroke: #cccccc; stroke-linecap: round"/>
     </g>
     <g id="text_11">
      <!-- 0.04 -->
      <g style="fill: #262626" transform="translate(59.092969 119.491352) scale(0.11 -0.11)">
       <use xlink:href="#ArialMT-30"/>
       <use xlink:href="#ArialMT-2e" x="55.615234"/>
       <use xlink:href="#ArialMT-30" x="83.398438"/>
       <use xlink:href="#ArialMT-34" x="139.013672"/>
      </g>
     </g>
    </g>
    <g id="ytick_6">
     <g id="line2d_11">
      <path d="M 90 87.343652 
L 648 87.343652 
" clip-path="url(#p84d2166c9a)" style="fill: none; stroke: #cccccc; stroke-linecap: round"/>
     </g>
     <g id="text_12">
      <!-- 0.06 -->
      <g style="fill: #262626" transform="translate(59.092969 91.280448) scale(0.11 -0.11)">
       <defs>
        <path id="ArialMT-36" d="M 3184 3459 
L 2625 3416 
Q 2550 3747 2413 3897 
Q 2184 4138 1850 4138 
Q 1581 4138 1378 3988 
Q 1113 3794 959 3422 
Q 806 3050 800 2363 
Q 1003 2672 1297 2822 
Q 1591 2972 1913 2972 
Q 2475 2972 2870 2558 
Q 3266 2144 3266 1488 
Q 3266 1056 3080 686 
Q 2894 316 2569 119 
Q 2244 -78 1831 -78 
Q 1128 -78 684 439 
Q 241 956 241 2144 
Q 241 3472 731 4075 
Q 1159 4600 1884 4600 
Q 2425 4600 2770 4297 
Q 3116 3994 3184 3459 
z
M 888 1484 
Q 888 1194 1011 928 
Q 1134 663 1356 523 
Q 1578 384 1822 384 
Q 2178 384 2434 671 
Q 2691 959 2691 1453 
Q 2691 1928 2437 2201 
Q 2184 2475 1800 2475 
Q 1419 2475 1153 2201 
Q 888 1928 888 1484 
z
" transform="scale(0.015625)"/>
       </defs>
       <use xlink:href="#ArialMT-30"/>
       <use xlink:href="#ArialMT-2e" x="55.615234"/>
       <use xlink:href="#ArialMT-30" x="83.398438"/>
       <use xlink:href="#ArialMT-36" x="139.013672"/>
      </g>
     </g>
    </g>
    <g id="ytick_7">
     <g id="line2d_12">
      <path d="M 90 59.132748 
L 648 59.132748 
" clip-path="url(#p84d2166c9a)" style="fill: none; stroke: #cccccc; stroke-linecap: round"/>
     </g>
     <g id="text_13">
      <!-- 0.08 -->
      <g style="fill: #262626" transform="translate(59.092969 63.069545) scale(0.11 -0.11)">
       <defs>
        <path id="ArialMT-38" d="M 1131 2484 
Q 781 2613 612 2850 
Q 444 3088 444 3419 
Q 444 3919 803 4259 
Q 1163 4600 1759 4600 
Q 2359 4600 2725 4251 
Q 3091 3903 3091 3403 
Q 3091 3084 2923 2848 
Q 2756 2613 2416 2484 
Q 2838 2347 3058 2040 
Q 3278 1734 3278 1309 
Q 3278 722 2862 322 
Q 2447 -78 1769 -78 
Q 1091 -78 675 323 
Q 259 725 259 1325 
Q 259 1772 486 2073 
Q 713 2375 1131 2484 
z
M 1019 3438 
Q 1019 3113 1228 2906 
Q 1438 2700 1772 2700 
Q 2097 2700 2305 2904 
Q 2513 3109 2513 3406 
Q 2513 3716 2298 3927 
Q 2084 4138 1766 4138 
Q 1444 4138 1231 3931 
Q 1019 3725 1019 3438 
z
M 838 1322 
Q 838 1081 952 856 
Q 1066 631 1291 507 
Q 1516 384 1775 384 
Q 2178 384 2440 643 
Q 2703 903 2703 1303 
Q 2703 1709 2433 1975 
Q 2163 2241 1756 2241 
Q 1359 2241 1098 1978 
Q 838 1716 838 1322 
z
" transform="scale(0.015625)"/>
       </defs>
       <use xlink:href="#ArialMT-30"/>
       <use xlink:href="#ArialMT-2e" x="55.615234"/>
       <use xlink:href="#ArialMT-30" x="83.398438"/>
       <use xlink:href="#ArialMT-38" x="139.013672"/>
      </g>
     </g>
    </g>
    <g id="text_14">
     <!-- Amplitude -->
     <g style="fill: #262626" transform="translate(46.283281 172.119375) rotate(-90) scale(0.12 -0.12)">
      <defs>
       <path id="ArialMT-41" d="M -9 0 
L 1750 4581 
L 2403 4581 
L 4278 0 
L 3588 0 
L 3053 1388 
L 1138 1388 
L 634 0 
L -9 0 
z
M 1313 1881 
L 2866 1881 
L 2388 3150 
Q 2169 3728 2063 4100 
Q 1975 3659 1816 3225 
L 1313 1881 
z
" transform="scale(0.015625)"/>
       <path id="ArialMT-69" d="M 425 3934 
L 425 4581 
L 988 4581 
L 988 3934 
L 425 3934 
z
M 425 0 
L 425 3319 
L 988 3319 
L 988 0 
L 425 0 
z
" transform="scale(0.015625)"/>
       <path id="ArialMT-74" d="M 1650 503 
L 1731 6 
Q 1494 -44 1306 -44 
Q 1000 -44 831 53 
Q 663 150 594 308 
Q 525 466 525 972 
L 525 2881 
L 113 2881 
L 113 3319 
L 525 3319 
L 525 4141 
L 1084 4478 
L 1084 3319 
L 1650 3319 
L 1650 2881 
L 1084 2881 
L 1084 941 
Q 1084 700 1114 631 
Q 1144 563 1211 522 
Q 1278 481 1403 481 
Q 1497 481 1650 503 
z
" transform="scale(0.015625)"/>
       <path id="ArialMT-75" d="M 2597 0 
L 2597 488 
Q 2209 -75 1544 -75 
Q 1250 -75 995 37 
Q 741 150 617 320 
Q 494 491 444 738 
Q 409 903 409 1263 
L 409 3319 
L 972 3319 
L 972 1478 
Q 972 1038 1006 884 
Q 1059 663 1231 536 
Q 1403 409 1656 409 
Q 1909 409 2131 539 
Q 2353 669 2445 892 
Q 2538 1116 2538 1541 
L 2538 3319 
L 3100 3319 
L 3100 0 
L 2597 0 
z
" transform="scale(0.015625)"/>
       <path id="ArialMT-64" d="M 2575 0 
L 2575 419 
Q 2259 -75 1647 -75 
Q 1250 -75 917 144 
Q 584 363 401 755 
Q 219 1147 219 1656 
Q 219 2153 384 2558 
Q 550 2963 881 3178 
Q 1213 3394 1622 3394 
Q 1922 3394 2156 3267 
Q 2391 3141 2538 2938 
L 2538 4581 
L 3097 4581 
L 3097 0 
L 2575 0 
z
M 797 1656 
Q 797 1019 1065 703 
Q 1334 388 1700 388 
Q 2069 388 2326 689 
Q 2584 991 2584 1609 
Q 2584 2291 2321 2609 
Q 2059 2928 1675 2928 
Q 1300 2928 1048 2622 
Q 797 2316 797 1656 
z
" transform="scale(0.015625)"/>
      </defs>
      <use xlink:href="#ArialMT-41"/>
      <use xlink:href="#ArialMT-6d" x="66.699219"/>
      <use xlink:href="#ArialMT-70" x="150"/>
      <use xlink:href="#ArialMT-6c" x="205.615234"/>
      <use xlink:href="#ArialMT-69" x="227.832031"/>
      <use xlink:href="#ArialMT-74" x="250.048828"/>
      <use xlink:href="#ArialMT-75" x="277.832031"/>
      <use xlink:href="#ArialMT-64" x="333.447266"/>
      <use xlink:href="#ArialMT-65" x="389.0625"/>
     </g>
    </g>
   </g>
   <g id="line2d_13">
    <path d="M 115.363636 177.441919 
L 116.436095 147.141402 
L 117.508553 230.304164 
L 118.581011 109.946294 
L 119.653469 162.802666 
L 120.725927 230.316991 
L 121.798386 126.629939 
L 122.870844 246.24 
L 123.943302 91.783619 
L 125.01576 212.929708 
L 126.088218 144.394246 
L 127.160677 163.259081 
L 128.233135 200.013339 
L 129.305593 140.709968 
L 130.378051 217.651924 
L 131.450509 143.667109 
L 132.522968 192.050048 
L 133.595426 159.236414 
L 134.667884 181.914903 
L 135.740342 141.851245 
L 136.8128 182.445495 
L 137.885259 200.291293 
L 138.957717 180.5874 
L 140.030175 137.738308 
L 141.102633 158.746269 
L 142.175091 157.429345 
L 143.247549 194.799794 
L 144.320008 189.546002 
L 145.392466 209.603575 
L 146.464924 161.568797 
L 147.537382 67.529355 
L 148.60984 200.403168 
L 149.682299 245.774411 
L 150.754757 188.060921 
L 151.827215 178.634824 
L 152.899673 121.678334 
L 153.972131 125.983447 
L 155.04459 172.576924 
L 156.117048 181.303683 
L 157.189506 200.944811 
L 158.261964 159.756659 
L 159.334422 215.710064 
L 160.406881 194.400711 
L 161.479339 153.38561 
L 162.551797 131.773886 
L 163.624255 162.548078 
L 164.696713 166.266933 
L 165.769172 186.279483 
L 166.84163 183.823889 
L 167.914088 162.26118 
L 168.986546 167.727398 
L 170.059004 176.771002 
L 171.131463 187.632178 
L 172.203921 183.575138 
L 173.276379 152.969379 
L 174.348837 171.550845 
L 175.421295 198.48592 
L 176.493754 166.631516 
L 177.566212 119.212875 
L 178.63867 149.958162 
L 179.711128 195.848168 
L 180.783586 212.699913 
L 181.856045 202.716566 
L 182.928503 124.384664 
L 184.000961 156.975754 
L 185.073419 202.208998 
L 186.145877 179.922427 
L 187.218336 170.095733 
L 188.290794 166.872338 
L 189.363252 146.457169 
L 190.43571 172.371422 
L 191.508168 164.538606 
L 192.580627 143.936292 
L 193.653085 210.941702 
L 194.725543 230.716527 
L 195.798001 163.465202 
L 196.870459 155.696675 
L 197.942918 128.863745 
L 199.015376 163.13075 
L 200.087834 189.000825 
L 201.160292 188.25614 
L 202.23275 167.749901 
L 203.305209 174.952124 
L 204.377667 161.271687 
L 205.450125 174.412623 
L 206.522583 182.960231 
L 207.595041 154.149314 
L 208.6675 186.749815 
L 209.739958 175.5918 
L 210.812416 169.118346 
L 211.884874 182.180169 
L 214.029791 125.10727 
L 215.102249 234.56226 
L 216.174707 184.027773 
L 217.247165 147.871162 
L 218.319623 185.313688 
L 219.392081 154.918717 
L 220.46454 183.341187 
L 221.536998 133.834681 
L 222.609456 179.098732 
L 223.681914 210.626558 
L 224.754372 175.914126 
L 225.826831 172.103695 
L 226.899289 150.459175 
L 227.971747 163.862425 
L 229.044205 154.639979 
L 230.116663 202.370241 
L 231.189122 190.095348 
L 232.26158 173.235794 
L 233.334038 159.599152 
L 234.406496 132.41534 
L 235.478954 166.953082 
L 236.551413 190.837318 
L 237.623871 206.878248 
L 238.696329 184.992024 
L 239.768787 153.109922 
L 240.841245 161.034963 
L 241.913704 176.66839 
L 242.986162 142.997602 
L 244.05862 152.195046 
L 245.131078 210.634337 
L 246.203536 204.133822 
L 247.275995 170.994116 
L 248.348453 148.93104 
L 249.420911 175.46776 
L 250.493369 140.671832 
L 251.565827 160.423106 
L 252.638286 196.776158 
L 253.710744 196.639239 
L 254.783202 186.29976 
L 255.85566 154.869909 
L 256.928118 160.955306 
L 258.000577 154.77781 
L 259.073035 179.221857 
L 260.145493 167.266656 
L 261.217951 188.281972 
L 262.290409 176.607613 
L 263.362868 177.251359 
L 264.435326 162.576006 
L 265.507784 156.954299 
L 266.580242 191.656506 
L 267.6527 172.782859 
L 268.725159 145.652395 
L 269.797617 176.691693 
L 270.870075 178.684929 
L 271.942533 186.041484 
L 273.014991 211.56253 
L 274.08745 101.794081 
L 275.159908 141.1292 
L 276.232366 241.02058 
L 277.304824 171.91585 
L 278.377282 198.813767 
L 279.449741 129.816465 
L 281.594657 174.137813 
L 282.667115 170.351686 
L 283.739573 201.134322 
L 284.812032 163.943731 
L 285.88449 183.813229 
L 286.956948 153.709634 
L 288.029406 176.410585 
L 289.101864 164.307946 
L 290.174323 183.181769 
L 291.246781 160.021193 
L 292.319239 187.410435 
L 293.391697 162.84776 
L 294.464155 180.136736 
L 295.536613 180.523765 
L 296.609072 146.857485 
L 297.68153 159.399169 
L 298.753988 179.330489 
L 299.826446 189.626365 
L 300.898904 198.64408 
L 303.043821 120.270076 
L 304.116279 192.596384 
L 305.188737 186.630599 
L 306.261195 208.824676 
L 307.333654 165.908006 
L 308.406112 128.287788 
L 309.47857 174.447802 
L 310.551028 158.611468 
L 311.623486 164.031433 
L 312.695945 195.424353 
L 313.768403 198.662059 
L 314.840861 189.201479 
L 315.913319 153.554951 
L 318.058236 152.100767 
L 319.130694 183.76473 
L 320.203152 183.28912 
L 321.27561 177.939661 
L 322.348068 158.424178 
L 323.420527 167.337639 
L 324.492985 184.177859 
L 325.565443 177.329353 
L 326.637901 182.502376 
L 327.710359 160.713145 
L 328.782818 149.209138 
L 329.855276 175.945657 
L 330.927734 180.835047 
L 332.000192 191.299681 
L 333.07265 154.231357 
L 334.145109 171.519788 
L 335.217567 182.786527 
L 336.290025 143.932237 
L 337.362483 194.386725 
L 338.434941 188.595147 
L 339.5074 176.205602 
L 340.579858 134.797642 
L 342.724774 187.43552 
L 343.797232 188.711161 
L 344.869691 174.937318 
L 345.942149 167.679675 
L 348.087065 158.02677 
L 349.159523 187.296903 
L 350.231982 186.600194 
L 351.30444 182.914287 
L 352.376898 160.677405 
L 353.449356 132.886228 
L 354.521814 166.087887 
L 355.594273 186.236888 
L 356.666731 195.350452 
L 357.739189 190.538591 
L 358.811647 175.944627 
L 359.884105 145.324974 
L 360.956564 154.06576 
L 362.029022 171.319974 
L 363.10148 181.568227 
L 364.173938 200.439174 
L 365.246396 144.195325 
L 366.318855 184.461861 
L 367.391313 181.600343 
L 368.463771 152.233803 
L 369.536229 157.976618 
L 370.608687 184.208767 
L 371.681145 180.978966 
L 372.753604 175.493033 
L 373.826062 168.610552 
L 374.89852 170.989093 
L 375.970978 171.241797 
L 377.043436 165.845752 
L 378.115895 176.625369 
L 379.188353 169.780735 
L 380.260811 172.347576 
L 381.333269 162.043873 
L 382.405727 197.378013 
L 383.478186 178.399347 
L 384.550644 167.401469 
L 385.623102 144.893973 
L 386.69556 150.439442 
L 387.768018 188.172349 
L 388.840477 208.033064 
L 389.912935 162.129834 
L 390.985393 147.407604 
L 392.057851 191.192614 
L 393.130309 170.182866 
L 394.202768 195.592519 
L 395.275226 157.248113 
L 396.347684 159.427548 
L 397.420142 168.354439 
L 398.4926 158.236243 
L 399.565059 168.793259 
L 400.637517 183.945503 
L 401.709975 202.024034 
L 402.782433 169.252629 
L 403.854891 169.036851 
L 404.92735 155.320694 
L 405.999808 167.34828 
L 407.072266 166.927112 
L 408.144724 176.497815 
L 409.217182 172.242837 
L 410.289641 183.197153 
L 411.362099 191.563449 
L 412.434557 177.243472 
L 413.507015 145.282532 
L 414.579473 135.071422 
L 415.651932 175.352665 
L 416.72439 190.696719 
L 417.796848 198.176608 
L 418.869306 181.172621 
L 419.941764 181.955274 
L 421.014223 146.362931 
L 422.086681 130.299656 
L 423.159139 183.362023 
L 424.231597 192.629048 
L 425.304055 185.089962 
L 426.376514 195.153112 
L 427.448972 143.434978 
L 428.52143 153.464656 
L 429.593888 176.819643 
L 430.666346 174.49897 
L 431.738805 176.359251 
L 432.811263 169.40962 
L 433.883721 184.944413 
L 434.956179 175.254661 
L 436.028637 161.562351 
L 437.101096 152.225529 
L 438.173554 177.390086 
L 439.246012 195.436682 
L 440.31847 168.929256 
L 441.390928 190.852622 
L 442.463387 157.058834 
L 443.535845 131.692889 
L 444.608303 173.922704 
L 445.680761 183.754313 
L 446.753219 220.897427 
L 447.825677 134.150994 
L 448.898136 155.42034 
L 449.970594 214.096361 
L 451.043052 155.44206 
L 452.11551 176.906304 
L 453.187968 162.595877 
L 454.260427 176.374031 
L 455.332885 158.20066 
L 456.405343 167.385508 
L 457.477801 172.387254 
L 458.550259 178.816849 
L 459.622718 193.671177 
L 460.695176 166.298045 
L 461.767634 171.678429 
L 462.840092 156.770973 
L 463.91255 168.785617 
L 464.985009 171.831483 
L 466.057467 186.324896 
L 467.129925 174.60483 
L 468.202383 165.301138 
L 469.274841 171.144525 
L 470.3473 182.849688 
L 471.419758 152.040033 
L 472.492216 159.344908 
L 474.637132 207.235725 
L 475.709591 166.73573 
L 476.782049 106.573829 
L 477.854507 191.394067 
L 478.926965 214.779255 
L 479.999423 207.177959 
L 481.071882 157.885849 
L 482.14434 136.699315 
L 483.216798 164.384931 
L 484.289256 139.506752 
L 486.434173 197.877724 
L 487.506631 188.279044 
L 488.579089 176.824912 
L 489.651547 194.129922 
L 490.724005 191.290404 
L 491.796464 142.917825 
L 492.868922 149.162224 
L 493.94138 147.108147 
L 495.013838 160.485229 
L 496.086296 202.238008 
L 497.158755 216.237211 
L 498.231213 178.211408 
L 499.303671 144.386574 
L 500.376129 127.919458 
L 501.448587 171.733159 
L 502.521046 191.079438 
L 503.593504 195.101396 
L 504.665962 186.738079 
L 505.73842 171.785743 
L 506.810878 159.76855 
L 507.883337 134.269865 
L 508.955795 174.355027 
L 510.028253 194.678647 
L 511.100711 192.683452 
L 512.173169 168.151039 
L 513.245628 155.493469 
L 514.318086 164.084758 
L 515.390544 179.703624 
L 516.463002 148.773174 
L 517.53546 182.624601 
L 518.607919 203.441406 
L 519.680377 175.574907 
L 520.752835 163.770816 
L 521.825293 154.445546 
L 522.897751 161.602777 
L 523.970209 176.246939 
L 525.042668 181.237769 
L 526.115126 171.888257 
L 527.187584 172.7371 
L 528.260042 174.709241 
L 529.3325 181.663599 
L 530.404959 180.30065 
L 531.477417 147.628565 
L 532.549875 146.215961 
L 533.622333 183.591823 
L 534.694791 190.209576 
L 535.76725 183.114818 
L 536.839708 177.822007 
L 537.912166 161.10772 
L 538.984624 160.566485 
L 540.057082 174.674273 
L 541.129541 160.936219 
L 542.201999 194.92574 
L 543.274457 162.906469 
L 544.346915 170.527007 
L 545.419373 171.008124 
L 546.491832 170.503029 
L 547.56429 186.03047 
L 548.636748 158.220065 
L 549.709206 177.337804 
L 550.781664 163.518985 
L 551.854123 178.358854 
L 552.926581 173.760144 
L 553.999039 167.600737 
L 555.071497 176.836705 
L 556.143955 166.764455 
L 557.216414 178.234207 
L 558.288872 163.902467 
L 559.36133 166.553176 
L 560.433788 201.500537 
L 561.506246 155.673789 
L 562.578705 160.880801 
L 563.651163 190.267945 
L 564.723621 149.716041 
L 565.796079 150.392077 
L 566.868537 206.236068 
L 567.940996 186.538219 
L 569.013454 177.254676 
L 570.085912 171.795427 
L 571.15837 162.824552 
L 572.230828 149.782463 
L 573.303287 145.988355 
L 574.375745 191.272816 
L 575.448203 193.343912 
L 576.520661 185.541964 
L 577.593119 163.954772 
L 578.665578 170.468441 
L 579.738036 165.261078 
L 580.810494 167.282345 
L 581.882952 162.713675 
L 582.95541 182.228054 
L 584.027869 174.938179 
L 585.100327 169.52518 
L 586.172785 189.053756 
L 587.245243 167.493365 
L 588.317701 155.527217 
L 589.39016 163.137041 
L 590.462618 173.254285 
L 592.607534 195.172591 
L 593.679992 162.958952 
L 594.752451 122.632959 
L 595.824909 194.802415 
L 596.897367 207.519401 
L 597.969825 170.091092 
L 599.042283 165.344437 
L 600.114741 142.011265 
L 601.1872 179.719997 
L 602.259658 172.623522 
L 603.332116 169.236489 
L 604.404574 184.176761 
L 605.477032 179.387563 
L 606.549491 170.637499 
L 607.621949 155.677334 
L 608.694407 174.924541 
L 609.766865 184.20953 
L 610.839323 184.628083 
L 611.911782 177.015106 
L 612.98424 121.88731 
L 614.056698 173.483281 
L 615.129156 163.915629 
L 616.201614 196.245942 
L 617.274073 205.558003 
L 618.346531 170.987179 
L 619.418989 180.10061 
L 620.491447 130.294207 
L 621.563905 217.091031 
L 622.636364 44.64 
L 622.636364 44.64 
" clip-path="url(#p84d2166c9a)" style="fill: none; stroke: #4c72b0; stroke-width: 1.5; stroke-linecap: round"/>
   </g>
   <g id="patch_3">
    <path d="M 90 256.32 
L 90 34.56 
" style="fill: none; stroke: #cccccc; stroke-width: 1.25; stroke-linejoin: miter; stroke-linecap: square"/>
   </g>
   <g id="patch_4">
    <path d="M 648 256.32 
L 648 34.56 
" style="fill: none; stroke: #cccccc; stroke-width: 1.25; stroke-linejoin: miter; stroke-linecap: square"/>
   </g>
   <g id="patch_5">
    <path d="M 90 256.32 
L 648 256.32 
" style="fill: none; stroke: #cccccc; stroke-width: 1.25; stroke-linejoin: miter; stroke-linecap: square"/>
   </g>
   <g id="patch_6">
    <path d="M 90 34.56 
L 648 34.56 
" style="fill: none; stroke: #cccccc; stroke-width: 1.25; stroke-linejoin: miter; stroke-linecap: square"/>
   </g>
   <g id="text_15">
    <!-- Postural Tremor -->
    <g style="fill: #262626" transform="translate(326.322187 28.56) scale(0.12 -0.12)">
     <defs>
      <path id="ArialMT-50" d="M 494 0 
L 494 4581 
L 2222 4581 
Q 2678 4581 2919 4538 
Q 3256 4481 3484 4323 
Q 3713 4166 3852 3881 
Q 3991 3597 3991 3256 
Q 3991 2672 3619 2267 
Q 3247 1863 2275 1863 
L 1100 1863 
L 1100 0 
L 494 0 
z
M 1100 2403 
L 2284 2403 
Q 2872 2403 3119 2622 
Q 3366 2841 3366 3238 
Q 3366 3525 3220 3729 
Q 3075 3934 2838 4000 
Q 2684 4041 2272 4041 
L 1100 4041 
L 1100 2403 
z
" transform="scale(0.015625)"/>
      <path id="ArialMT-6f" d="M 213 1659 
Q 213 2581 725 3025 
Q 1153 3394 1769 3394 
Q 2453 3394 2887 2945 
Q 3322 2497 3322 1706 
Q 3322 1066 3130 698 
Q 2938 331 2570 128 
Q 2203 -75 1769 -75 
Q 1072 -75 642 372 
Q 213 819 213 1659 
z
M 791 1659 
Q 791 1022 1069 705 
Q 1347 388 1769 388 
Q 2188 388 2466 706 
Q 2744 1025 2744 1678 
Q 2744 2294 2464 2611 
Q 2184 2928 1769 2928 
Q 1347 2928 1069 2612 
Q 791 2297 791 1659 
z
" transform="scale(0.015625)"/>
      <path id="ArialMT-73" d="M 197 991 
L 753 1078 
Q 800 744 1014 566 
Q 1228 388 1613 388 
Q 2000 388 2187 545 
Q 2375 703 2375 916 
Q 2375 1106 2209 1216 
Q 2094 1291 1634 1406 
Q 1016 1563 777 1677 
Q 538 1791 414 1992 
Q 291 2194 291 2438 
Q 291 2659 392 2848 
Q 494 3038 669 3163 
Q 800 3259 1026 3326 
Q 1253 3394 1513 3394 
Q 1903 3394 2198 3281 
Q 2494 3169 2634 2976 
Q 2775 2784 2828 2463 
L 2278 2388 
Q 2241 2644 2061 2787 
Q 1881 2931 1553 2931 
Q 1166 2931 1000 2803 
Q 834 2675 834 2503 
Q 834 2394 903 2306 
Q 972 2216 1119 2156 
Q 1203 2125 1616 2013 
Q 2213 1853 2448 1751 
Q 2684 1650 2818 1456 
Q 2953 1263 2953 975 
Q 2953 694 2789 445 
Q 2625 197 2315 61 
Q 2006 -75 1616 -75 
Q 969 -75 630 194 
Q 291 463 197 991 
z
" transform="scale(0.015625)"/>
      <path id="ArialMT-72" d="M 416 0 
L 416 3319 
L 922 3319 
L 922 2816 
Q 1116 3169 1280 3281 
Q 1444 3394 1641 3394 
Q 1925 3394 2219 3213 
L 2025 2691 
Q 1819 2813 1613 2813 
Q 1428 2813 1281 2702 
Q 1134 2591 1072 2394 
Q 978 2094 978 1738 
L 978 0 
L 416 0 
z
" transform="scale(0.015625)"/>
      <path id="ArialMT-20" transform="scale(0.015625)"/>
      <path id="ArialMT-54" d="M 1659 0 
L 1659 4041 
L 150 4041 
L 150 4581 
L 3781 4581 
L 3781 4041 
L 2266 4041 
L 2266 0 
L 1659 0 
z
" transform="scale(0.015625)"/>
     </defs>
     <use xlink:href="#ArialMT-50"/>
     <use xlink:href="#ArialMT-6f" x="66.699219"/>
     <use xlink:href="#ArialMT-73" x="122.314453"/>
     <use xlink:href="#ArialMT-74" x="172.314453"/>
     <use xlink:href="#ArialMT-75" x="200.097656"/>
     <use xlink:href="#ArialMT-72" x="255.712891"/>
     <use xlink:href="#ArialMT-61" x="289.013672"/>
     <use xlink:href="#ArialMT-6c" x="344.628906"/>
     <use xlink:href="#ArialMT-20" x="366.845703"/>
     <use xlink:href="#ArialMT-54" x="392.878906"/>
     <use xlink:href="#ArialMT-72" x="450.212891"/>
     <use xlink:href="#ArialMT-65" x="483.513672"/>
     <use xlink:href="#ArialMT-6d" x="539.128906"/>
     <use xlink:href="#ArialMT-6f" x="622.429688"/>
     <use xlink:href="#ArialMT-72" x="678.044922"/>
    </g>
   </g>
   <g id="legend_1">
    <g id="patch_7">
     <path d="M 97.7 59.182813 
L 203.208906 59.182813 
Q 205.408906 59.182813 205.408906 56.982813 
L 205.408906 42.26 
Q 205.408906 40.06 203.208906 40.06 
L 97.7 40.06 
Q 95.5 40.06 95.5 42.26 
L 95.5 56.982813 
Q 95.5 59.182813 97.7 59.182813 
z
" style="fill: #ffffff; opacity: 0.8; stroke: #cccccc; stroke-linejoin: miter"/>
    </g>
    <g id="line2d_14">
     <path d="M 99.9 48.617656 
L 110.9 48.617656 
L 121.9 48.617656 
" style="fill: none; stroke: #4c72b0; stroke-width: 1.5; stroke-linecap: round"/>
    </g>
    <g id="text_16">
     <!-- Filtered Signal -->
     <g style="fill: #262626" transform="translate(130.7 52.467656) scale(0.11 -0.11)">
      <defs>
       <path id="ArialMT-46" d="M 525 0 
L 525 4581 
L 3616 4581 
L 3616 4041 
L 1131 4041 
L 1131 2622 
L 3281 2622 
L 3281 2081 
L 1131 2081 
L 1131 0 
L 525 0 
z
" transform="scale(0.015625)"/>
       <path id="ArialMT-67" d="M 319 -275 
L 866 -356 
Q 900 -609 1056 -725 
Q 1266 -881 1628 -881 
Q 2019 -881 2231 -725 
Q 2444 -569 2519 -288 
Q 2563 -116 2559 434 
Q 2191 0 1641 0 
Q 956 0 581 494 
Q 206 988 206 1678 
Q 206 2153 378 2554 
Q 550 2956 876 3175 
Q 1203 3394 1644 3394 
Q 2231 3394 2613 2919 
L 2613 3319 
L 3131 3319 
L 3131 450 
Q 3131 -325 2973 -648 
Q 2816 -972 2473 -1159 
Q 2131 -1347 1631 -1347 
Q 1038 -1347 672 -1080 
Q 306 -813 319 -275 
z
M 784 1719 
Q 784 1066 1043 766 
Q 1303 466 1694 466 
Q 2081 466 2343 764 
Q 2606 1063 2606 1700 
Q 2606 2309 2336 2618 
Q 2066 2928 1684 2928 
Q 1309 2928 1046 2623 
Q 784 2319 784 1719 
z
" transform="scale(0.015625)"/>
       <path id="ArialMT-6e" d="M 422 0 
L 422 3319 
L 928 3319 
L 928 2847 
Q 1294 3394 1984 3394 
Q 2284 3394 2536 3286 
Q 2788 3178 2913 3003 
Q 3038 2828 3088 2588 
Q 3119 2431 3119 2041 
L 3119 0 
L 2556 0 
L 2556 2019 
Q 2556 2363 2490 2533 
Q 2425 2703 2258 2804 
Q 2091 2906 1866 2906 
Q 1506 2906 1245 2678 
Q 984 2450 984 1813 
L 984 0 
L 422 0 
z
" transform="scale(0.015625)"/>
      </defs>
      <use xlink:href="#ArialMT-46"/>
      <use xlink:href="#ArialMT-69" x="61.083984"/>
      <use xlink:href="#ArialMT-6c" x="83.300781"/>
      <use xlink:href="#ArialMT-74" x="105.517578"/>
      <use xlink:href="#ArialMT-65" x="133.300781"/>
      <use xlink:href="#ArialMT-72" x="188.916016"/>
      <use xlink:href="#ArialMT-65" x="222.216797"/>
      <use xlink:href="#ArialMT-64" x="277.832031"/>
      <use xlink:href="#ArialMT-20" x="333.447266"/>
      <use xlink:href="#ArialMT-53" x="361.230469"/>
      <use xlink:href="#ArialMT-69" x="427.929688"/>
      <use xlink:href="#ArialMT-67" x="450.146484"/>
      <use xlink:href="#ArialMT-6e" x="505.761719"/>
      <use xlink:href="#ArialMT-61" x="561.376953"/>
      <use xlink:href="#ArialMT-6c" x="616.992188"/>
     </g>
    </g>
   </g>
  </g>
 </g>
 <defs>
  <clipPath id="p84d2166c9a">
   <rect x="90" y="34.56" width="558" height="221.76"/>
  </clipPath>
 </defs>
</svg>
