<?xml version="1.0" encoding="utf-8" standalone="no"?>
<!DOCTYPE svg PUBLIC "-//W3C//DTD SVG 1.1//EN"
  "http://www.w3.org/Graphics/SVG/1.1/DTD/svg11.dtd">
<svg xmlns:xlink="http://www.w3.org/1999/xlink" width="720pt" height="288pt" viewBox="0 0 720 288" xmlns="http://www.w3.org/2000/svg" version="1.1">
 <metadata>
  <rdf:RDF xmlns:dc="http://purl.org/dc/elements/1.1/" xmlns:cc="http://creativecommons.org/ns#" xmlns:rdf="http://www.w3.org/1999/02/22-rdf-syntax-ns#">
   <cc:Work>
    <dc:type rdf:resource="http://purl.org/dc/dcmitype/StillImage"/>
    <dc:date>2024-11-28T12:29:53.077972</dc:date>
    <dc:format>image/svg+xml</dc:format>
    <dc:creator>
     <cc:Agent>
      <dc:title>Matplotlib v3.9.2, https://matplotlib.org/</dc:title>
     </cc:Agent>
    </dc:creator>
   </cc:Work>
  </rdf:RDF>
 </metadata>
 <defs>
  <style type="text/css">*{stroke-linejoin: round; stroke-linecap: butt}</style>
 </defs>
 <g id="figure_1">
  <g id="patch_1">
   <path d="M 0 288 
L 720 288 
L 720 0 
L 0 0 
z
" style="fill: #ffffff"/>
  </g>
  <g id="axes_1">
   <g id="patch_2">
    <path d="M 90 256.32 
L 648 256.32 
L 648 34.56 
L 90 34.56 
z
" style="fill: #ffffff"/>
   </g>
   <g id="matplotlib.axis_1">
    <g id="xtick_1">
     <g id="line2d_1">
      <defs>
       <path id="m7892549523" d="M 0 0 
L 0 3.5 
" style="stroke: #000000; stroke-width: 0.8"/>
      </defs>
      <g>
       <use xlink:href="#m7892549523" x="115.363636" y="256.32" style="stroke: #000000; stroke-width: 0.8"/>
      </g>
     </g>
     <g id="text_1">
      <!-- 0 -->
      <g transform="translate(112.182386 270.918437) scale(0.1 -0.1)">
       <defs>
        <path id="DejaVuSans-30" d="M 2034 4250 
Q 1547 4250 1301 3770 
Q 1056 3291 1056 2328 
Q 1056 1369 1301 889 
Q 1547 409 2034 409 
Q 2525 409 2770 889 
Q 3016 1369 3016 2328 
Q 3016 3291 2770 3770 
Q 2525 4250 2034 4250 
z
M 2034 4750 
Q 2819 4750 3233 4129 
Q 3647 3509 3647 2328 
Q 3647 1150 3233 529 
Q 2819 -91 2034 -91 
Q 1250 -91 836 529 
Q 422 1150 422 2328 
Q 422 3509 836 4129 
Q 1250 4750 2034 4750 
z
" transform="scale(0.015625)"/>
       </defs>
       <use xlink:href="#DejaVuSans-30"/>
      </g>
     </g>
    </g>
    <g id="xtick_2">
     <g id="line2d_2">
      <g>
       <use xlink:href="#m7892549523" x="194.255196" y="256.32" style="stroke: #000000; stroke-width: 0.8"/>
      </g>
     </g>
     <g id="text_2">
      <!-- 100 -->
      <g transform="translate(184.711446 270.918437) scale(0.1 -0.1)">
       <defs>
        <path id="DejaVuSans-31" d="M 794 531 
L 1825 531 
L 1825 4091 
L 703 3866 
L 703 4441 
L 1819 4666 
L 2450 4666 
L 2450 531 
L 3481 531 
L 3481 0 
L 794 0 
L 794 531 
z
" transform="scale(0.015625)"/>
       </defs>
       <use xlink:href="#DejaVuSans-31"/>
       <use xlink:href="#DejaVuSans-30" x="63.623047"/>
       <use xlink:href="#DejaVuSans-30" x="127.246094"/>
      </g>
     </g>
    </g>
    <g id="xtick_3">
     <g id="line2d_3">
      <g>
       <use xlink:href="#m7892549523" x="273.146755" y="256.32" style="stroke: #000000; stroke-width: 0.8"/>
      </g>
     </g>
     <g id="text_3">
      <!-- 200 -->
      <g transform="translate(263.603005 270.918437) scale(0.1 -0.1)">
       <defs>
        <path id="DejaVuSans-32" d="M 1228 531 
L 3431 531 
L 3431 0 
L 469 0 
L 469 531 
Q 828 903 1448 1529 
Q 2069 2156 2228 2338 
Q 2531 2678 2651 2914 
Q 2772 3150 2772 3378 
Q 2772 3750 2511 3984 
Q 2250 4219 1831 4219 
Q 1534 4219 1204 4116 
Q 875 4013 500 3803 
L 500 4441 
Q 881 4594 1212 4672 
Q 1544 4750 1819 4750 
Q 2544 4750 2975 4387 
Q 3406 4025 3406 3419 
Q 3406 3131 3298 2873 
Q 3191 2616 2906 2266 
Q 2828 2175 2409 1742 
Q 1991 1309 1228 531 
z
" transform="scale(0.015625)"/>
       </defs>
       <use xlink:href="#DejaVuSans-32"/>
       <use xlink:href="#DejaVuSans-30" x="63.623047"/>
       <use xlink:href="#DejaVuSans-30" x="127.246094"/>
      </g>
     </g>
    </g>
    <g id="xtick_4">
     <g id="line2d_4">
      <g>
       <use xlink:href="#m7892549523" x="352.038315" y="256.32" style="stroke: #000000; stroke-width: 0.8"/>
      </g>
     </g>
     <g id="text_4">
      <!-- 300 -->
      <g transform="translate(342.494565 270.918437) scale(0.1 -0.1)">
       <defs>
        <path id="DejaVuSans-33" d="M 2597 2516 
Q 3050 2419 3304 2112 
Q 3559 1806 3559 1356 
Q 3559 666 3084 287 
Q 2609 -91 1734 -91 
Q 1441 -91 1130 -33 
Q 819 25 488 141 
L 488 750 
Q 750 597 1062 519 
Q 1375 441 1716 441 
Q 2309 441 2620 675 
Q 2931 909 2931 1356 
Q 2931 1769 2642 2001 
Q 2353 2234 1838 2234 
L 1294 2234 
L 1294 2753 
L 1863 2753 
Q 2328 2753 2575 2939 
Q 2822 3125 2822 3475 
Q 2822 3834 2567 4026 
Q 2313 4219 1838 4219 
Q 1578 4219 1281 4162 
Q 984 4106 628 3988 
L 628 4550 
Q 988 4650 1302 4700 
Q 1616 4750 1894 4750 
Q 2613 4750 3031 4423 
Q 3450 4097 3450 3541 
Q 3450 3153 3228 2886 
Q 3006 2619 2597 2516 
z
" transform="scale(0.015625)"/>
       </defs>
       <use xlink:href="#DejaVuSans-33"/>
       <use xlink:href="#DejaVuSans-30" x="63.623047"/>
       <use xlink:href="#DejaVuSans-30" x="127.246094"/>
      </g>
     </g>
    </g>
    <g id="xtick_5">
     <g id="line2d_5">
      <g>
       <use xlink:href="#m7892549523" x="430.929874" y="256.32" style="stroke: #000000; stroke-width: 0.8"/>
      </g>
     </g>
     <g id="text_5">
      <!-- 400 -->
      <g transform="translate(421.386124 270.918437) scale(0.1 -0.1)">
       <defs>
        <path id="DejaVuSans-34" d="M 2419 4116 
L 825 1625 
L 2419 1625 
L 2419 4116 
z
M 2253 4666 
L 3047 4666 
L 3047 1625 
L 3713 1625 
L 3713 1100 
L 3047 1100 
L 3047 0 
L 2419 0 
L 2419 1100 
L 313 1100 
L 313 1709 
L 2253 4666 
z
" transform="scale(0.015625)"/>
       </defs>
       <use xlink:href="#DejaVuSans-34"/>
       <use xlink:href="#DejaVuSans-30" x="63.623047"/>
       <use xlink:href="#DejaVuSans-30" x="127.246094"/>
      </g>
     </g>
    </g>
    <g id="xtick_6">
     <g id="line2d_6">
      <g>
       <use xlink:href="#m7892549523" x="509.821434" y="256.32" style="stroke: #000000; stroke-width: 0.8"/>
      </g>
     </g>
     <g id="text_6">
      <!-- 500 -->
      <g transform="translate(500.277684 270.918437) scale(0.1 -0.1)">
       <defs>
        <path id="DejaVuSans-35" d="M 691 4666 
L 3169 4666 
L 3169 4134 
L 1269 4134 
L 1269 2991 
Q 1406 3038 1543 3061 
Q 1681 3084 1819 3084 
Q 2600 3084 3056 2656 
Q 3513 2228 3513 1497 
Q 3513 744 3044 326 
Q 2575 -91 1722 -91 
Q 1428 -91 1123 -41 
Q 819 9 494 109 
L 494 744 
Q 775 591 1075 516 
Q 1375 441 1709 441 
Q 2250 441 2565 725 
Q 2881 1009 2881 1497 
Q 2881 1984 2565 2268 
Q 2250 2553 1709 2553 
Q 1456 2553 1204 2497 
Q 953 2441 691 2322 
L 691 4666 
z
" transform="scale(0.015625)"/>
       </defs>
       <use xlink:href="#DejaVuSans-35"/>
       <use xlink:href="#DejaVuSans-30" x="63.623047"/>
       <use xlink:href="#DejaVuSans-30" x="127.246094"/>
      </g>
     </g>
    </g>
    <g id="xtick_7">
     <g id="line2d_7">
      <g>
       <use xlink:href="#m7892549523" x="588.712993" y="256.32" style="stroke: #000000; stroke-width: 0.8"/>
      </g>
     </g>
     <g id="text_7">
      <!-- 600 -->
      <g transform="translate(579.169243 270.918437) scale(0.1 -0.1)">
       <defs>
        <path id="DejaVuSans-36" d="M 2113 2584 
Q 1688 2584 1439 2293 
Q 1191 2003 1191 1497 
Q 1191 994 1439 701 
Q 1688 409 2113 409 
Q 2538 409 2786 701 
Q 3034 994 3034 1497 
Q 3034 2003 2786 2293 
Q 2538 2584 2113 2584 
z
M 3366 4563 
L 3366 3988 
Q 3128 4100 2886 4159 
Q 2644 4219 2406 4219 
Q 1781 4219 1451 3797 
Q 1122 3375 1075 2522 
Q 1259 2794 1537 2939 
Q 1816 3084 2150 3084 
Q 2853 3084 3261 2657 
Q 3669 2231 3669 1497 
Q 3669 778 3244 343 
Q 2819 -91 2113 -91 
Q 1303 -91 875 529 
Q 447 1150 447 2328 
Q 447 3434 972 4092 
Q 1497 4750 2381 4750 
Q 2619 4750 2861 4703 
Q 3103 4656 3366 4563 
z
" transform="scale(0.015625)"/>
       </defs>
       <use xlink:href="#DejaVuSans-36"/>
       <use xlink:href="#DejaVuSans-30" x="63.623047"/>
       <use xlink:href="#DejaVuSans-30" x="127.246094"/>
      </g>
     </g>
    </g>
    <g id="text_8">
     <!-- Sample -->
     <g transform="translate(350.251562 284.596563) scale(0.1 -0.1)">
      <defs>
       <path id="DejaVuSans-53" d="M 3425 4513 
L 3425 3897 
Q 3066 4069 2747 4153 
Q 2428 4238 2131 4238 
Q 1616 4238 1336 4038 
Q 1056 3838 1056 3469 
Q 1056 3159 1242 3001 
Q 1428 2844 1947 2747 
L 2328 2669 
Q 3034 2534 3370 2195 
Q 3706 1856 3706 1288 
Q 3706 609 3251 259 
Q 2797 -91 1919 -91 
Q 1588 -91 1214 -16 
Q 841 59 441 206 
L 441 856 
Q 825 641 1194 531 
Q 1563 422 1919 422 
Q 2459 422 2753 634 
Q 3047 847 3047 1241 
Q 3047 1584 2836 1778 
Q 2625 1972 2144 2069 
L 1759 2144 
Q 1053 2284 737 2584 
Q 422 2884 422 3419 
Q 422 4038 858 4394 
Q 1294 4750 2059 4750 
Q 2388 4750 2728 4690 
Q 3069 4631 3425 4513 
z
" transform="scale(0.015625)"/>
       <path id="DejaVuSans-61" d="M 2194 1759 
Q 1497 1759 1228 1600 
Q 959 1441 959 1056 
Q 959 750 1161 570 
Q 1363 391 1709 391 
Q 2188 391 2477 730 
Q 2766 1069 2766 1631 
L 2766 1759 
L 2194 1759 
z
M 3341 1997 
L 3341 0 
L 2766 0 
L 2766 531 
Q 2569 213 2275 61 
Q 1981 -91 1556 -91 
Q 1019 -91 701 211 
Q 384 513 384 1019 
Q 384 1609 779 1909 
Q 1175 2209 1959 2209 
L 2766 2209 
L 2766 2266 
Q 2766 2663 2505 2880 
Q 2244 3097 1772 3097 
Q 1472 3097 1187 3025 
Q 903 2953 641 2809 
L 641 3341 
Q 956 3463 1253 3523 
Q 1550 3584 1831 3584 
Q 2591 3584 2966 3190 
Q 3341 2797 3341 1997 
z
" transform="scale(0.015625)"/>
       <path id="DejaVuSans-6d" d="M 3328 2828 
Q 3544 3216 3844 3400 
Q 4144 3584 4550 3584 
Q 5097 3584 5394 3201 
Q 5691 2819 5691 2113 
L 5691 0 
L 5113 0 
L 5113 2094 
Q 5113 2597 4934 2840 
Q 4756 3084 4391 3084 
Q 3944 3084 3684 2787 
Q 3425 2491 3425 1978 
L 3425 0 
L 2847 0 
L 2847 2094 
Q 2847 2600 2669 2842 
Q 2491 3084 2119 3084 
Q 1678 3084 1418 2786 
Q 1159 2488 1159 1978 
L 1159 0 
L 581 0 
L 581 3500 
L 1159 3500 
L 1159 2956 
Q 1356 3278 1631 3431 
Q 1906 3584 2284 3584 
Q 2666 3584 2933 3390 
Q 3200 3197 3328 2828 
z
" transform="scale(0.015625)"/>
       <path id="DejaVuSans-70" d="M 1159 525 
L 1159 -1331 
L 581 -1331 
L 581 3500 
L 1159 3500 
L 1159 2969 
Q 1341 3281 1617 3432 
Q 1894 3584 2278 3584 
Q 2916 3584 3314 3078 
Q 3713 2572 3713 1747 
Q 3713 922 3314 415 
Q 2916 -91 2278 -91 
Q 1894 -91 1617 61 
Q 1341 213 1159 525 
z
M 3116 1747 
Q 3116 2381 2855 2742 
Q 2594 3103 2138 3103 
Q 1681 3103 1420 2742 
Q 1159 2381 1159 1747 
Q 1159 1113 1420 752 
Q 1681 391 2138 391 
Q 2594 391 2855 752 
Q 3116 1113 3116 1747 
z
" transform="scale(0.015625)"/>
       <path id="DejaVuSans-6c" d="M 603 4863 
L 1178 4863 
L 1178 0 
L 603 0 
L 603 4863 
z
" transform="scale(0.015625)"/>
       <path id="DejaVuSans-65" d="M 3597 1894 
L 3597 1613 
L 953 1613 
Q 991 1019 1311 708 
Q 1631 397 2203 397 
Q 2534 397 2845 478 
Q 3156 559 3463 722 
L 3463 178 
Q 3153 47 2828 -22 
Q 2503 -91 2169 -91 
Q 1331 -91 842 396 
Q 353 884 353 1716 
Q 353 2575 817 3079 
Q 1281 3584 2069 3584 
Q 2775 3584 3186 3129 
Q 3597 2675 3597 1894 
z
M 3022 2063 
Q 3016 2534 2758 2815 
Q 2500 3097 2075 3097 
Q 1594 3097 1305 2825 
Q 1016 2553 972 2059 
L 3022 2063 
z
" transform="scale(0.015625)"/>
      </defs>
      <use xlink:href="#DejaVuSans-53"/>
      <use xlink:href="#DejaVuSans-61" x="63.476562"/>
      <use xlink:href="#DejaVuSans-6d" x="124.755859"/>
      <use xlink:href="#DejaVuSans-70" x="222.167969"/>
      <use xlink:href="#DejaVuSans-6c" x="285.644531"/>
      <use xlink:href="#DejaVuSans-65" x="313.427734"/>
     </g>
    </g>
   </g>
   <g id="matplotlib.axis_2">
    <g id="ytick_1">
     <g id="line2d_8">
      <defs>
       <path id="m3fa808406f" d="M 0 0 
L -3.5 0 
" style="stroke: #000000; stroke-width: 0.8"/>
      </defs>
      <g>
       <use xlink:href="#m3fa808406f" x="90" y="245.496688" style="stroke: #000000; stroke-width: 0.8"/>
      </g>
     </g>
     <g id="text_9">
      <!-- −0.075 -->
      <g transform="translate(45.992188 249.295907) scale(0.1 -0.1)">
       <defs>
        <path id="DejaVuSans-2212" d="M 678 2272 
L 4684 2272 
L 4684 1741 
L 678 1741 
L 678 2272 
z
" transform="scale(0.015625)"/>
        <path id="DejaVuSans-2e" d="M 684 794 
L 1344 794 
L 1344 0 
L 684 0 
L 684 794 
z
" transform="scale(0.015625)"/>
        <path id="DejaVuSans-37" d="M 525 4666 
L 3525 4666 
L 3525 4397 
L 1831 0 
L 1172 0 
L 2766 4134 
L 525 4134 
L 525 4666 
z
" transform="scale(0.015625)"/>
       </defs>
       <use xlink:href="#DejaVuSans-2212"/>
       <use xlink:href="#DejaVuSans-30" x="83.789062"/>
       <use xlink:href="#DejaVuSans-2e" x="147.412109"/>
       <use xlink:href="#DejaVuSans-30" x="179.199219"/>
       <use xlink:href="#DejaVuSans-37" x="242.822266"/>
       <use xlink:href="#DejaVuSans-35" x="306.445312"/>
      </g>
     </g>
    </g>
    <g id="ytick_2">
     <g id="line2d_9">
      <g>
       <use xlink:href="#m3fa808406f" x="90" y="216.7875" style="stroke: #000000; stroke-width: 0.8"/>
      </g>
     </g>
     <g id="text_10">
      <!-- −0.050 -->
      <g transform="translate(45.992188 220.586719) scale(0.1 -0.1)">
       <use xlink:href="#DejaVuSans-2212"/>
       <use xlink:href="#DejaVuSans-30" x="83.789062"/>
       <use xlink:href="#DejaVuSans-2e" x="147.412109"/>
       <use xlink:href="#DejaVuSans-30" x="179.199219"/>
       <use xlink:href="#DejaVuSans-35" x="242.822266"/>
       <use xlink:href="#DejaVuSans-30" x="306.445312"/>
      </g>
     </g>
    </g>
    <g id="ytick_3">
     <g id="line2d_10">
      <g>
       <use xlink:href="#m3fa808406f" x="90" y="188.078311" style="stroke: #000000; stroke-width: 0.8"/>
      </g>
     </g>
     <g id="text_11">
      <!-- −0.025 -->
      <g transform="translate(45.992188 191.87753) scale(0.1 -0.1)">
       <use xlink:href="#DejaVuSans-2212"/>
       <use xlink:href="#DejaVuSans-30" x="83.789062"/>
       <use xlink:href="#DejaVuSans-2e" x="147.412109"/>
       <use xlink:href="#DejaVuSans-30" x="179.199219"/>
       <use xlink:href="#DejaVuSans-32" x="242.822266"/>
       <use xlink:href="#DejaVuSans-35" x="306.445312"/>
      </g>
     </g>
    </g>
    <g id="ytick_4">
     <g id="line2d_11">
      <g>
       <use xlink:href="#m3fa808406f" x="90" y="159.369123" style="stroke: #000000; stroke-width: 0.8"/>
      </g>
     </g>
     <g id="text_12">
      <!-- 0.000 -->
      <g transform="translate(54.371875 163.168341) scale(0.1 -0.1)">
       <use xlink:href="#DejaVuSans-30"/>
       <use xlink:href="#DejaVuSans-2e" x="63.623047"/>
       <use xlink:href="#DejaVuSans-30" x="95.410156"/>
       <use xlink:href="#DejaVuSans-30" x="159.033203"/>
       <use xlink:href="#DejaVuSans-30" x="222.65625"/>
      </g>
     </g>
    </g>
    <g id="ytick_5">
     <g id="line2d_12">
      <g>
       <use xlink:href="#m3fa808406f" x="90" y="130.659934" style="stroke: #000000; stroke-width: 0.8"/>
      </g>
     </g>
     <g id="text_13">
      <!-- 0.025 -->
      <g transform="translate(54.371875 134.459153) scale(0.1 -0.1)">
       <use xlink:href="#DejaVuSans-30"/>
       <use xlink:href="#DejaVuSans-2e" x="63.623047"/>
       <use xlink:href="#DejaVuSans-30" x="95.410156"/>
       <use xlink:href="#DejaVuSans-32" x="159.033203"/>
       <use xlink:href="#DejaVuSans-35" x="222.65625"/>
      </g>
     </g>
    </g>
    <g id="ytick_6">
     <g id="line2d_13">
      <g>
       <use xlink:href="#m3fa808406f" x="90" y="101.950746" style="stroke: #000000; stroke-width: 0.8"/>
      </g>
     </g>
     <g id="text_14">
      <!-- 0.050 -->
      <g transform="translate(54.371875 105.749964) scale(0.1 -0.1)">
       <use xlink:href="#DejaVuSans-30"/>
       <use xlink:href="#DejaVuSans-2e" x="63.623047"/>
       <use xlink:href="#DejaVuSans-30" x="95.410156"/>
       <use xlink:href="#DejaVuSans-35" x="159.033203"/>
       <use xlink:href="#DejaVuSans-30" x="222.65625"/>
      </g>
     </g>
    </g>
    <g id="ytick_7">
     <g id="line2d_14">
      <g>
       <use xlink:href="#m3fa808406f" x="90" y="73.241557" style="stroke: #000000; stroke-width: 0.8"/>
      </g>
     </g>
     <g id="text_15">
      <!-- 0.075 -->
      <g transform="translate(54.371875 77.040776) scale(0.1 -0.1)">
       <use xlink:href="#DejaVuSans-30"/>
       <use xlink:href="#DejaVuSans-2e" x="63.623047"/>
       <use xlink:href="#DejaVuSans-30" x="95.410156"/>
       <use xlink:href="#DejaVuSans-37" x="159.033203"/>
       <use xlink:href="#DejaVuSans-35" x="222.65625"/>
      </g>
     </g>
    </g>
    <g id="ytick_8">
     <g id="line2d_15">
      <g>
       <use xlink:href="#m3fa808406f" x="90" y="44.532368" style="stroke: #000000; stroke-width: 0.8"/>
      </g>
     </g>
     <g id="text_16">
      <!-- 0.100 -->
      <g transform="translate(54.371875 48.331587) scale(0.1 -0.1)">
       <use xlink:href="#DejaVuSans-30"/>
       <use xlink:href="#DejaVuSans-2e" x="63.623047"/>
       <use xlink:href="#DejaVuSans-31" x="95.410156"/>
       <use xlink:href="#DejaVuSans-30" x="159.033203"/>
       <use xlink:href="#DejaVuSans-30" x="222.65625"/>
      </g>
     </g>
    </g>
    <g id="text_17">
     <!-- Amplitude -->
     <g transform="translate(39.9125 171.062656) rotate(-90) scale(0.1 -0.1)">
      <defs>
       <path id="DejaVuSans-41" d="M 2188 4044 
L 1331 1722 
L 3047 1722 
L 2188 4044 
z
M 1831 4666 
L 2547 4666 
L 4325 0 
L 3669 0 
L 3244 1197 
L 1141 1197 
L 716 0 
L 50 0 
L 1831 4666 
z
" transform="scale(0.015625)"/>
       <path id="DejaVuSans-69" d="M 603 3500 
L 1178 3500 
L 1178 0 
L 603 0 
L 603 3500 
z
M 603 4863 
L 1178 4863 
L 1178 4134 
L 603 4134 
L 603 4863 
z
" transform="scale(0.015625)"/>
       <path id="DejaVuSans-74" d="M 1172 4494 
L 1172 3500 
L 2356 3500 
L 2356 3053 
L 1172 3053 
L 1172 1153 
Q 1172 725 1289 603 
Q 1406 481 1766 481 
L 2356 481 
L 2356 0 
L 1766 0 
Q 1100 0 847 248 
Q 594 497 594 1153 
L 594 3053 
L 172 3053 
L 172 3500 
L 594 3500 
L 594 4494 
L 1172 4494 
z
" transform="scale(0.015625)"/>
       <path id="DejaVuSans-75" d="M 544 1381 
L 544 3500 
L 1119 3500 
L 1119 1403 
Q 1119 906 1312 657 
Q 1506 409 1894 409 
Q 2359 409 2629 706 
Q 2900 1003 2900 1516 
L 2900 3500 
L 3475 3500 
L 3475 0 
L 2900 0 
L 2900 538 
Q 2691 219 2414 64 
Q 2138 -91 1772 -91 
Q 1169 -91 856 284 
Q 544 659 544 1381 
z
M 1991 3584 
L 1991 3584 
z
" transform="scale(0.015625)"/>
       <path id="DejaVuSans-64" d="M 2906 2969 
L 2906 4863 
L 3481 4863 
L 3481 0 
L 2906 0 
L 2906 525 
Q 2725 213 2448 61 
Q 2172 -91 1784 -91 
Q 1150 -91 751 415 
Q 353 922 353 1747 
Q 353 2572 751 3078 
Q 1150 3584 1784 3584 
Q 2172 3584 2448 3432 
Q 2725 3281 2906 2969 
z
M 947 1747 
Q 947 1113 1208 752 
Q 1469 391 1925 391 
Q 2381 391 2643 752 
Q 2906 1113 2906 1747 
Q 2906 2381 2643 2742 
Q 2381 3103 1925 3103 
Q 1469 3103 1208 2742 
Q 947 2381 947 1747 
z
" transform="scale(0.015625)"/>
      </defs>
      <use xlink:href="#DejaVuSans-41"/>
      <use xlink:href="#DejaVuSans-6d" x="68.408203"/>
      <use xlink:href="#DejaVuSans-70" x="165.820312"/>
      <use xlink:href="#DejaVuSans-6c" x="229.296875"/>
      <use xlink:href="#DejaVuSans-69" x="257.080078"/>
      <use xlink:href="#DejaVuSans-74" x="284.863281"/>
      <use xlink:href="#DejaVuSans-75" x="324.072266"/>
      <use xlink:href="#DejaVuSans-64" x="387.451172"/>
      <use xlink:href="#DejaVuSans-65" x="450.927734"/>
     </g>
    </g>
   </g>
   <g id="line2d_16">
    <path d="M 115.363636 185.411295 
L 116.152552 105.975991 
L 116.941468 144.826852 
L 117.730383 199.918322 
L 118.519299 202.999856 
L 119.308214 197.375568 
L 120.09713 44.64 
L 120.886046 137.434998 
L 121.674961 198.545867 
L 122.463877 198.090105 
L 123.252792 137.942082 
L 124.041708 151.866749 
L 124.830623 188.304848 
L 125.619539 150.027702 
L 126.408455 138.339639 
L 127.19737 140.538547 
L 127.986286 196.063522 
L 128.775201 164.017594 
L 130.353033 139.669861 
L 131.141948 179.552659 
L 131.930864 157.764062 
L 132.719779 149.725219 
L 133.508695 149.047204 
L 134.297611 179.754962 
L 135.086526 166.584674 
L 135.875442 147.784536 
L 136.664357 148.814148 
L 137.453273 168.048706 
L 138.242189 168.003925 
L 139.031104 149.156318 
L 139.82002 156.488875 
L 140.608935 165.484391 
L 141.397851 168.316594 
L 142.186767 146.178172 
L 142.975682 156.881825 
L 144.553513 169.961264 
L 145.342429 148.368614 
L 146.131345 157.948828 
L 147.709176 168.571989 
L 148.498091 148.682136 
L 150.864838 167.650467 
L 151.653754 154.336332 
L 152.442669 157.32235 
L 153.231585 163.802423 
L 154.0205 164.420565 
L 154.809416 153.840854 
L 155.598332 153.780096 
L 156.387247 163.052679 
L 157.176163 161.886812 
L 157.965078 155.507725 
L 158.753994 154.644946 
L 159.54291 167.464524 
L 160.331825 165.23447 
L 161.909656 149.348121 
L 162.698572 159.554066 
L 164.276403 162.82858 
L 165.065319 158.350513 
L 165.854234 163.85943 
L 166.64315 158.422492 
L 168.220981 154.979157 
L 169.009897 162.385823 
L 169.798812 159.386322 
L 170.587728 157.954593 
L 171.376644 158.809845 
L 172.165559 165.212354 
L 172.954475 161.022521 
L 173.74339 154.54741 
L 174.532306 154.730742 
L 175.321222 161.772297 
L 176.110137 163.005743 
L 176.899053 158.3085 
L 177.687968 158.748477 
L 178.476884 161.346156 
L 179.2658 160.332204 
L 180.054715 154.2199 
L 180.843631 157.416513 
L 181.632546 163.016559 
L 182.421462 165.068306 
L 183.210377 157.456474 
L 183.999293 155.747418 
L 184.788209 156.45537 
L 185.577124 159.80197 
L 186.36604 159.556168 
L 187.154955 163.923137 
L 187.943871 162.957359 
L 189.521702 151.858935 
L 191.099533 165.064006 
L 191.888449 162.995234 
L 192.677365 154.877438 
L 193.46628 156.371312 
L 194.255196 162.617576 
L 195.044111 162.253476 
L 195.833027 156.140599 
L 196.621943 156.477665 
L 197.410858 162.094548 
L 198.199774 161.556462 
L 198.988689 156.890695 
L 199.777605 157.523195 
L 200.566521 163.164703 
L 201.355436 161.376141 
L 202.144352 155.933171 
L 202.933267 156.369803 
L 203.722183 163.189194 
L 204.511099 161.849259 
L 205.300014 155.388874 
L 206.08893 154.795129 
L 206.877845 163.196482 
L 207.666761 165.109663 
L 208.455677 159.024376 
L 209.244592 154.464476 
L 210.033508 158.294426 
L 210.822423 160.827163 
L 211.611339 159.57814 
L 212.400254 159.058688 
L 213.18917 161.499264 
L 213.978086 160.036887 
L 214.767001 156.354609 
L 215.555917 157.532724 
L 216.344832 162.412155 
L 217.133748 161.698018 
L 217.922664 156.48211 
L 218.711579 157.019725 
L 219.500495 162.572143 
L 220.28941 162.662132 
L 221.078326 156.233088 
L 221.867242 155.284273 
L 222.656157 161.072233 
L 223.445073 163.287667 
L 224.233988 158.008673 
L 225.022904 156.234556 
L 225.81182 160.696722 
L 226.600735 162.777577 
L 227.389651 157.885002 
L 228.178566 155.890881 
L 228.967482 160.222097 
L 229.756398 163.194416 
L 230.545313 159.519272 
L 231.334229 156.993485 
L 232.123144 159.148853 
L 232.91206 160.133237 
L 233.700976 156.917777 
L 234.489891 157.114977 
L 235.278807 162.682806 
L 236.067722 164.725923 
L 236.856638 158.837029 
L 237.645554 154.100861 
L 238.434469 157.272176 
L 239.223385 161.919598 
L 240.0123 161.245794 
L 240.801216 158.876376 
L 241.590131 159.874248 
L 242.379047 160.514686 
L 243.167963 157.665559 
L 243.956878 155.751135 
L 244.745794 159.264449 
L 245.534709 163.290467 
L 246.323625 162.312203 
L 247.112541 157.894351 
L 247.901456 155.681094 
L 248.690372 156.934998 
L 250.268203 163.647116 
L 251.057119 163.074987 
L 251.846034 157.806223 
L 252.63495 154.226277 
L 253.423865 157.524581 
L 254.212781 162.657181 
L 255.001697 161.20038 
L 255.790612 156.365808 
L 256.579528 157.400392 
L 257.368443 162.845456 
L 258.157359 162.800193 
L 258.946275 157.29046 
L 259.73519 156.148205 
L 260.524106 160.474076 
L 261.313021 161.143566 
L 262.101937 156.921442 
L 262.890853 157.325908 
L 263.679768 163.359019 
L 264.468684 164.155249 
L 265.257599 156.710513 
L 266.046515 152.890516 
L 267.624346 164.360339 
L 268.413262 161.636994 
L 269.202177 156.944852 
L 269.991093 157.503877 
L 270.780008 159.765781 
L 271.568924 159.040146 
L 272.35784 158.976649 
L 273.146755 161.808861 
L 273.935671 162.318378 
L 274.724586 158.365157 
L 275.513502 156.44684 
L 276.302418 159.087407 
L 277.091333 159.766611 
L 277.880249 156.553565 
L 278.669164 157.433264 
L 279.45808 164.227849 
L 280.246996 165.98104 
L 281.035911 157.699024 
L 281.824827 151.23159 
L 282.613742 156.436882 
L 283.402658 164.605003 
L 284.191574 163.572439 
L 284.980489 157.19826 
L 285.769405 156.610308 
L 286.55832 161.085739 
L 287.347236 162.063717 
L 288.136152 158.618709 
L 288.925067 156.753794 
L 291.291814 159.784014 
L 292.08073 161.769904 
L 292.869645 162.093507 
L 293.658561 159.149419 
L 294.447476 156.860697 
L 295.236392 158.375348 
L 296.025308 160.396112 
L 296.814223 159.596202 
L 297.603139 158.29119 
L 299.18097 159.704927 
L 299.969885 159.560537 
L 301.547717 161.685054 
L 302.336632 158.600187 
L 303.125548 154.256428 
L 303.914463 156.87016 
L 304.703379 164.682158 
L 305.492295 165.531206 
L 306.28121 156.817226 
L 307.070126 151.777385 
L 308.647957 165.328116 
L 309.436873 162.800406 
L 310.225788 156.815737 
L 311.014704 157.26978 
L 311.803619 160.634429 
L 312.592535 159.197506 
L 313.381451 156.384288 
L 314.170366 158.841079 
L 314.959282 162.642804 
L 315.748197 160.862968 
L 316.537113 157.105425 
L 317.326029 158.448678 
L 318.114944 162.158131 
L 318.90386 161.450725 
L 319.692775 157.946535 
L 320.481691 157.042652 
L 321.270607 157.731377 
L 322.059522 157.447525 
L 322.848438 159.264718 
L 323.637353 164.141769 
L 324.426269 164.598429 
L 325.215185 157.288382 
L 326.0041 152.153214 
L 326.793016 157.349409 
L 327.581931 164.633699 
L 328.370847 163.118494 
L 329.159762 157.41189 
L 329.948678 157.56391 
L 330.737594 160.544062 
L 331.526509 158.11516 
L 332.315425 154.623905 
L 333.10434 158.99216 
L 333.893256 165.976386 
L 334.682172 163.904521 
L 335.471087 155.965305 
L 336.260003 154.985694 
L 337.048918 160.802913 
L 337.837834 161.844343 
L 338.62675 156.938103 
L 339.415665 156.320084 
L 340.204581 161.455265 
L 340.993496 162.661033 
L 341.782412 158.044659 
L 342.571328 156.770414 
L 343.360243 161.11811 
L 344.149159 162.344149 
L 344.938074 157.879061 
L 345.72699 156.220908 
L 346.515906 160.426133 
L 347.304821 162.24247 
L 348.093737 158.028842 
L 348.882652 155.751067 
L 349.671568 159.933292 
L 350.460484 163.288645 
L 352.038315 157.077028 
L 353.616146 160.907567 
L 355.193977 155.661407 
L 355.982893 159.209882 
L 356.771808 164.208417 
L 357.560724 163.002544 
L 358.349639 157.511277 
L 359.138555 155.473242 
L 359.927471 158.254078 
L 360.716386 160.566783 
L 361.505302 159.949081 
L 362.294217 159.147837 
L 363.083133 159.898204 
L 363.872049 160.296037 
L 364.660964 159.09287 
L 365.44988 158.291488 
L 366.238795 159.741638 
L 367.027711 161.467231 
L 367.816627 159.936809 
L 368.605542 155.911884 
L 369.394458 155.114376 
L 370.972289 165.807186 
L 371.761205 163.341075 
L 372.55012 155.596067 
L 373.339036 153.328555 
L 374.127951 159.414067 
L 374.916867 164.129606 
L 375.705783 160.619171 
L 376.494698 155.590074 
L 377.283614 157.370438 
L 378.072529 162.183632 
L 378.861445 161.956899 
L 379.650361 158.494163 
L 380.439276 158.571064 
L 381.228192 160.609143 
L 382.017107 158.588059 
L 382.806023 155.151018 
L 383.594938 157.76353 
L 384.383854 164.007259 
L 385.17277 164.136644 
L 385.961685 157.770009 
L 386.750601 154.906257 
L 387.539516 159.044577 
L 388.328432 162.177861 
L 389.906263 156.776572 
L 390.695179 159.088918 
L 391.484094 161.872964 
L 392.27301 160.192745 
L 393.061926 157.490488 
L 393.850841 158.720316 
L 394.639757 161.416243 
L 395.428672 160.449118 
L 396.217588 157.038031 
L 397.006504 156.619898 
L 397.795419 160.14872 
L 398.584335 162.887434 
L 399.37325 161.281856 
L 400.162166 157.508789 
L 400.951082 156.386795 
L 402.528913 161.66946 
L 403.317828 160.070937 
L 404.106744 156.820056 
L 404.89566 157.623484 
L 405.684575 162.176448 
L 406.473491 163.604938 
L 408.051322 155.188667 
L 408.840238 157.068451 
L 409.629153 160.987297 
L 410.418069 160.989565 
L 411.206984 158.626475 
L 411.9959 158.678377 
L 412.784815 160.318266 
L 413.573731 159.99991 
L 414.362647 158.818996 
L 415.940478 160.393666 
L 417.518309 157.001064 
L 418.307225 159.071284 
L 419.09614 161.737264 
L 419.885056 160.723385 
L 420.673971 158.492451 
L 421.462887 159.159156 
L 422.251803 160.292313 
L 423.829634 156.395516 
L 424.618549 159.306278 
L 425.407465 162.911688 
L 426.196381 161.184418 
L 426.985296 157.273753 
L 427.774212 157.715742 
L 428.563127 160.436742 
L 429.352043 159.661275 
L 430.140959 157.809857 
L 431.71879 162.918416 
L 432.507705 159.068718 
L 433.296621 153.717628 
L 434.085537 156.820221 
L 434.874452 164.716362 
L 435.663368 164.675548 
L 436.452283 156.674049 
L 437.241199 153.777875 
L 438.030115 159.907377 
L 438.81903 164.053012 
L 440.396861 155.516167 
L 441.185777 157.806411 
L 441.974692 161.764573 
L 442.763608 161.085192 
L 443.552524 158.366106 
L 444.341439 158.247467 
L 445.130355 159.668372 
L 445.91927 160.125249 
L 446.708186 159.979058 
L 447.497102 159.284102 
L 448.286017 157.511277 
L 449.074933 157.434151 
L 449.863848 161.331762 
L 450.652764 164.067506 
L 451.44168 159.733586 
L 452.230595 153.65591 
L 453.019511 155.823898 
L 453.808426 163.553707 
L 454.597342 164.638181 
L 455.386258 157.810687 
L 456.175173 154.634072 
L 456.964089 159.182828 
L 457.753004 162.098538 
L 458.54192 158.748388 
L 459.330836 157.008771 
L 460.119751 161.083547 
L 460.908667 163.150104 
L 461.697582 158.650191 
L 462.486498 155.470001 
L 464.064329 162.875464 
L 464.853245 159.741773 
L 465.64216 155.758377 
L 466.431076 157.919189 
L 467.219992 161.887869 
L 468.008907 161.000927 
L 468.797823 158.184072 
L 469.586738 158.943357 
L 470.375654 160.787446 
L 471.164569 159.255437 
L 471.953485 157.174404 
L 472.742401 158.817401 
L 473.531316 161.34752 
L 474.320232 160.422344 
L 475.109147 158.334532 
L 475.898063 158.923645 
L 476.686979 160.199545 
L 478.26481 157.99236 
L 479.842641 161.079024 
L 480.631557 159.473567 
L 481.420472 157.45656 
L 482.209388 158.403598 
L 482.998303 160.476444 
L 483.787219 160.746783 
L 484.576135 160.07773 
L 485.36505 159.703367 
L 486.942881 157.040955 
L 487.731797 158.676277 
L 488.520713 162.339177 
L 489.309628 162.150701 
L 490.098544 157.241253 
L 490.887459 154.690991 
L 491.676375 158.523621 
L 492.465291 163.242088 
L 493.254206 162.84527 
L 494.043122 159.196826 
L 494.832037 156.995746 
L 495.620953 156.996244 
L 496.409869 158.249149 
L 497.198784 160.730161 
L 497.9877 162.480299 
L 498.776615 160.515425 
L 499.565531 156.939936 
L 500.354446 157.195412 
L 501.143362 160.691456 
L 501.932278 161.270955 
L 502.721193 158.228028 
L 503.510109 157.564749 
L 504.299024 160.595168 
L 505.08794 161.492331 
L 505.876856 158.504869 
L 506.665771 157.169773 
L 507.454687 159.523594 
L 508.243602 160.638216 
L 509.032518 158.825402 
L 509.821434 158.667702 
L 510.610349 161.020501 
L 511.399265 160.898322 
L 512.18818 157.970164 
L 512.977096 157.845347 
L 513.766012 160.580836 
L 514.554927 160.035836 
L 515.343843 156.730188 
L 516.132758 157.952291 
L 516.921674 162.83927 
L 517.71059 162.181973 
L 518.499505 156.095849 
L 519.288421 155.664523 
L 520.077336 162.687527 
L 520.866252 164.95665 
L 521.655168 157.789111 
L 522.444083 152.80113 
L 523.232999 157.463493 
L 524.021914 162.955597 
L 524.81083 161.390385 
L 525.599746 158.674584 
L 526.388661 160.442751 
L 527.177577 161.133478 
L 527.966492 157.299131 
L 528.755408 156.260194 
L 529.544323 161.130913 
L 530.333239 162.762598 
L 531.122155 157.106296 
L 531.91107 154.555951 
L 532.699986 160.783743 
L 533.488901 164.919458 
L 535.066733 154.290471 
L 535.855648 159.184612 
L 536.644564 164.840614 
L 537.433479 160.65378 
L 538.222395 153.99713 
L 539.011311 156.226033 
L 539.800226 162.621879 
L 540.589142 162.686333 
L 541.378057 158.597886 
L 542.166973 157.92733 
L 542.955889 159.101312 
L 543.744804 158.280529 
L 544.53372 159.139548 
L 545.322635 162.89596 
L 546.111551 161.574205 
L 546.900467 153.943428 
L 547.689382 152.982009 
L 548.478298 163.646946 
L 549.267213 169.988058 
L 550.056129 160.605111 
L 550.845045 149.607705 
L 551.63396 153.435129 
L 552.422876 163.659774 
L 553.211791 163.829117 
L 554.000707 157.896857 
L 554.789623 158.890464 
L 555.578538 163.05959 
L 556.367454 159.38852 
L 557.156369 153.437751 
L 557.945285 157.292258 
L 558.7342 165.212414 
L 559.523116 163.202521 
L 560.312032 154.896621 
L 561.100947 154.632023 
L 561.889863 161.531531 
L 562.678778 163.055598 
L 563.467694 158.539442 
L 564.25661 157.6929 
L 565.045525 160.738881 
L 565.834441 160.22561 
L 566.623356 157.596618 
L 567.412272 159.251059 
L 568.201188 161.738147 
L 569.779019 155.048511 
L 570.567934 159.109705 
L 571.35685 164.86025 
L 572.145766 162.496293 
L 572.934681 156.208402 
L 573.723597 155.576831 
L 574.512512 158.497914 
L 575.301428 158.853574 
L 576.090344 160.009218 
L 576.879259 164.578659 
L 577.668175 163.932072 
L 578.45709 154.743406 
L 579.246006 150.715367 
L 580.034922 159.893064 
L 580.823837 167.618577 
L 581.612753 161.593009 
L 582.401668 154.370278 
L 583.9795 163.597789 
L 584.768415 156.048795 
L 585.557331 150.474682 
L 587.135162 171.400318 
L 587.924077 162.671146 
L 588.712993 149.946408 
L 589.501909 155.511879 
L 590.290824 167.232201 
L 591.07974 162.04153 
L 591.868655 150.306221 
L 592.657571 155.400732 
L 593.446487 167.844463 
L 594.235402 163.6832 
L 595.024318 151.546134 
L 595.813233 155.752088 
L 596.602149 168.179652 
L 597.391065 164.03725 
L 598.17998 151.058706 
L 598.968896 154.403317 
L 599.757811 166.632571 
L 600.546727 162.662025 
L 601.335643 150.726692 
L 602.124558 156.291686 
L 602.913474 169.52252 
L 603.702389 163.353288 
L 604.491305 149.092425 
L 605.280221 155.983199 
L 606.069136 171.205865 
L 606.858052 162.651725 
L 607.646967 144.844863 
L 608.435883 154.135953 
L 609.224799 174.973398 
L 610.013714 166.064906 
L 610.80263 143.192546 
L 611.591545 152.826436 
L 612.380461 178.414365 
L 613.169377 166.835139 
L 613.958292 135.219298 
L 614.747208 146.148447 
L 615.536123 189.994879 
L 616.325039 176.030072 
L 617.113954 126.327621 
L 617.90287 144.005168 
L 618.691786 195.367629 
L 619.480701 177.6232 
L 620.269617 106.153622 
L 621.058532 130.936775 
L 621.847448 246.24 
L 622.636364 201.637525 
L 622.636364 201.637525 
" clip-path="url(#pe1240e7692)" style="fill: none; stroke: #1f77b4; stroke-width: 1.5; stroke-linecap: square"/>
   </g>
   <g id="patch_3">
    <path d="M 90 256.32 
L 90 34.56 
" style="fill: none; stroke: #000000; stroke-width: 0.8; stroke-linejoin: miter; stroke-linecap: square"/>
   </g>
   <g id="patch_4">
    <path d="M 648 256.32 
L 648 34.56 
" style="fill: none; stroke: #000000; stroke-width: 0.8; stroke-linejoin: miter; stroke-linecap: square"/>
   </g>
   <g id="patch_5">
    <path d="M 90 256.32 
L 648 256.32 
" style="fill: none; stroke: #000000; stroke-width: 0.8; stroke-linejoin: miter; stroke-linecap: square"/>
   </g>
   <g id="patch_6">
    <path d="M 90 34.56 
L 648 34.56 
" style="fill: none; stroke: #000000; stroke-width: 0.8; stroke-linejoin: miter; stroke-linecap: square"/>
   </g>
   <g id="text_18">
    <!-- Postural Tremor -->
    <g transform="translate(322.145625 28.56) scale(0.12 -0.12)">
     <defs>
      <path id="DejaVuSans-50" d="M 1259 4147 
L 1259 2394 
L 2053 2394 
Q 2494 2394 2734 2622 
Q 2975 2850 2975 3272 
Q 2975 3691 2734 3919 
Q 2494 4147 2053 4147 
L 1259 4147 
z
M 628 4666 
L 2053 4666 
Q 2838 4666 3239 4311 
Q 3641 3956 3641 3272 
Q 3641 2581 3239 2228 
Q 2838 1875 2053 1875 
L 1259 1875 
L 1259 0 
L 628 0 
L 628 4666 
z
" transform="scale(0.015625)"/>
      <path id="DejaVuSans-6f" d="M 1959 3097 
Q 1497 3097 1228 2736 
Q 959 2375 959 1747 
Q 959 1119 1226 758 
Q 1494 397 1959 397 
Q 2419 397 2687 759 
Q 2956 1122 2956 1747 
Q 2956 2369 2687 2733 
Q 2419 3097 1959 3097 
z
M 1959 3584 
Q 2709 3584 3137 3096 
Q 3566 2609 3566 1747 
Q 3566 888 3137 398 
Q 2709 -91 1959 -91 
Q 1206 -91 779 398 
Q 353 888 353 1747 
Q 353 2609 779 3096 
Q 1206 3584 1959 3584 
z
" transform="scale(0.015625)"/>
      <path id="DejaVuSans-73" d="M 2834 3397 
L 2834 2853 
Q 2591 2978 2328 3040 
Q 2066 3103 1784 3103 
Q 1356 3103 1142 2972 
Q 928 2841 928 2578 
Q 928 2378 1081 2264 
Q 1234 2150 1697 2047 
L 1894 2003 
Q 2506 1872 2764 1633 
Q 3022 1394 3022 966 
Q 3022 478 2636 193 
Q 2250 -91 1575 -91 
Q 1294 -91 989 -36 
Q 684 19 347 128 
L 347 722 
Q 666 556 975 473 
Q 1284 391 1588 391 
Q 1994 391 2212 530 
Q 2431 669 2431 922 
Q 2431 1156 2273 1281 
Q 2116 1406 1581 1522 
L 1381 1569 
Q 847 1681 609 1914 
Q 372 2147 372 2553 
Q 372 3047 722 3315 
Q 1072 3584 1716 3584 
Q 2034 3584 2315 3537 
Q 2597 3491 2834 3397 
z
" transform="scale(0.015625)"/>
      <path id="DejaVuSans-72" d="M 2631 2963 
Q 2534 3019 2420 3045 
Q 2306 3072 2169 3072 
Q 1681 3072 1420 2755 
Q 1159 2438 1159 1844 
L 1159 0 
L 581 0 
L 581 3500 
L 1159 3500 
L 1159 2956 
Q 1341 3275 1631 3429 
Q 1922 3584 2338 3584 
Q 2397 3584 2469 3576 
Q 2541 3569 2628 3553 
L 2631 2963 
z
" transform="scale(0.015625)"/>
      <path id="DejaVuSans-20" transform="scale(0.015625)"/>
      <path id="DejaVuSans-54" d="M -19 4666 
L 3928 4666 
L 3928 4134 
L 2272 4134 
L 2272 0 
L 1638 0 
L 1638 4134 
L -19 4134 
L -19 4666 
z
" transform="scale(0.015625)"/>
     </defs>
     <use xlink:href="#DejaVuSans-50"/>
     <use xlink:href="#DejaVuSans-6f" x="56.677734"/>
     <use xlink:href="#DejaVuSans-73" x="117.859375"/>
     <use xlink:href="#DejaVuSans-74" x="169.958984"/>
     <use xlink:href="#DejaVuSans-75" x="209.167969"/>
     <use xlink:href="#DejaVuSans-72" x="272.546875"/>
     <use xlink:href="#DejaVuSans-61" x="313.660156"/>
     <use xlink:href="#DejaVuSans-6c" x="374.939453"/>
     <use xlink:href="#DejaVuSans-20" x="402.722656"/>
     <use xlink:href="#DejaVuSans-54" x="434.509766"/>
     <use xlink:href="#DejaVuSans-72" x="480.84375"/>
     <use xlink:href="#DejaVuSans-65" x="519.707031"/>
     <use xlink:href="#DejaVuSans-6d" x="581.230469"/>
     <use xlink:href="#DejaVuSans-6f" x="678.642578"/>
     <use xlink:href="#DejaVuSans-72" x="739.824219"/>
    </g>
   </g>
   <g id="legend_1">
    <g id="patch_7">
     <path d="M 538.059375 57.238125 
L 641 57.238125 
Q 643 57.238125 643 55.238125 
L 643 41.56 
Q 643 39.56 641 39.56 
L 538.059375 39.56 
Q 536.059375 39.56 536.059375 41.56 
L 536.059375 55.238125 
Q 536.059375 57.238125 538.059375 57.238125 
z
" style="fill: #ffffff; opacity: 0.8; stroke: #cccccc; stroke-linejoin: miter"/>
    </g>
    <g id="line2d_17">
     <path d="M 540.059375 47.658438 
L 550.059375 47.658438 
L 560.059375 47.658438 
" style="fill: none; stroke: #1f77b4; stroke-width: 1.5; stroke-linecap: square"/>
    </g>
    <g id="text_19">
     <!-- Filtered Signal -->
     <g transform="translate(568.059375 51.158438) scale(0.1 -0.1)">
      <defs>
       <path id="DejaVuSans-46" d="M 628 4666 
L 3309 4666 
L 3309 4134 
L 1259 4134 
L 1259 2759 
L 3109 2759 
L 3109 2228 
L 1259 2228 
L 1259 0 
L 628 0 
L 628 4666 
z
" transform="scale(0.015625)"/>
       <path id="DejaVuSans-67" d="M 2906 1791 
Q 2906 2416 2648 2759 
Q 2391 3103 1925 3103 
Q 1463 3103 1205 2759 
Q 947 2416 947 1791 
Q 947 1169 1205 825 
Q 1463 481 1925 481 
Q 2391 481 2648 825 
Q 2906 1169 2906 1791 
z
M 3481 434 
Q 3481 -459 3084 -895 
Q 2688 -1331 1869 -1331 
Q 1566 -1331 1297 -1286 
Q 1028 -1241 775 -1147 
L 775 -588 
Q 1028 -725 1275 -790 
Q 1522 -856 1778 -856 
Q 2344 -856 2625 -561 
Q 2906 -266 2906 331 
L 2906 616 
Q 2728 306 2450 153 
Q 2172 0 1784 0 
Q 1141 0 747 490 
Q 353 981 353 1791 
Q 353 2603 747 3093 
Q 1141 3584 1784 3584 
Q 2172 3584 2450 3431 
Q 2728 3278 2906 2969 
L 2906 3500 
L 3481 3500 
L 3481 434 
z
" transform="scale(0.015625)"/>
       <path id="DejaVuSans-6e" d="M 3513 2113 
L 3513 0 
L 2938 0 
L 2938 2094 
Q 2938 2591 2744 2837 
Q 2550 3084 2163 3084 
Q 1697 3084 1428 2787 
Q 1159 2491 1159 1978 
L 1159 0 
L 581 0 
L 581 3500 
L 1159 3500 
L 1159 2956 
Q 1366 3272 1645 3428 
Q 1925 3584 2291 3584 
Q 2894 3584 3203 3211 
Q 3513 2838 3513 2113 
z
" transform="scale(0.015625)"/>
      </defs>
      <use xlink:href="#DejaVuSans-46"/>
      <use xlink:href="#DejaVuSans-69" x="50.269531"/>
      <use xlink:href="#DejaVuSans-6c" x="78.052734"/>
      <use xlink:href="#DejaVuSans-74" x="105.835938"/>
      <use xlink:href="#DejaVuSans-65" x="145.044922"/>
      <use xlink:href="#DejaVuSans-72" x="206.568359"/>
      <use xlink:href="#DejaVuSans-65" x="245.431641"/>
      <use xlink:href="#DejaVuSans-64" x="306.955078"/>
      <use xlink:href="#DejaVuSans-20" x="370.431641"/>
      <use xlink:href="#DejaVuSans-53" x="402.21875"/>
      <use xlink:href="#DejaVuSans-69" x="465.695312"/>
      <use xlink:href="#DejaVuSans-67" x="493.478516"/>
      <use xlink:href="#DejaVuSans-6e" x="556.955078"/>
      <use xlink:href="#DejaVuSans-61" x="620.333984"/>
      <use xlink:href="#DejaVuSans-6c" x="681.613281"/>
     </g>
    </g>
   </g>
  </g>
 </g>
 <defs>
  <clipPath id="pe1240e7692">
   <rect x="90" y="34.56" width="558" height="221.76"/>
  </clipPath>
 </defs>
</svg>
